<svg id="Capa_1" data-name="Capa 1" xmlns="http://www.w3.org/2000/svg" viewBox="0 0 512 512"><defs><style>.cls-1{fill:#f9be2f;}.cls-2{fill:#d9992f;}.cls-3{fill:#fef4f5;}.cls-4{fill:#e94936;}.cls-5{fill:#a43336;}.cls-6{fill:#d5eded;}</style></defs><title>lang</title><path class="cls-1" d="M353.08,83.13,302.53,47A55.26,55.26,0,0,0,248,0H55.17A55.23,55.23,0,0,0,0,55.16V248a55.23,55.23,0,0,0,55.17,55.16h168.7a15,15,0,0,0,10.61-25.6l43-43a15,15,0,0,0,25.61-10.61V143.22l49.95-35.68a15,15,0,0,0,0-24.41Z"/><path class="cls-2" d="M353.08,83.13,302.53,47A55.26,55.26,0,0,0,248,0H152.64V303.13h71.23a15,15,0,0,0,10.61-25.6l43-43a15,15,0,0,0,25.61-10.61V143.22l49.95-35.68a15,15,0,0,0,0-24.41Z"/><path class="cls-3" d="M197.65,193.86a63.58,63.58,0,0,1-32.81-9.07A80.63,80.63,0,0,0,186,138.27h11.66a8.46,8.46,0,1,0,0-16.91H160V100.82a8.46,8.46,0,1,0-16.91,0v20.54H105.48a8.46,8.46,0,1,0,0,16.91h11.66a80.63,80.63,0,0,0,21.15,46.52,63.71,63.71,0,0,1-32.81,9.07,8.46,8.46,0,0,0,0,16.92,80.48,80.48,0,0,0,46.08-14.46,80.43,80.43,0,0,0,46.09,14.46,8.46,8.46,0,1,0,0-16.92ZM169,138.27a63.82,63.82,0,0,1-17.39,35.94,63.87,63.87,0,0,1-17.38-35.94Z"/><path class="cls-4" d="M456.84,208.87H264A55.23,55.23,0,0,0,208.87,264V368.78l-50,35.68a15,15,0,0,0,0,24.41L209.47,465A55.26,55.26,0,0,0,264,512h192.8A55.23,55.23,0,0,0,512,456.83V264A55.22,55.22,0,0,0,456.84,208.87Z"/><path class="cls-5" d="M456.84,208.87H360.43V512h96.41A55.23,55.23,0,0,0,512,456.83V264A55.22,55.22,0,0,0,456.84,208.87Z"/><path class="cls-3" d="M315.68,411a9.32,9.32,0,0,1,.33-1.61L347,308.3c1.44-4.82,7.39-7.08,13.33-7.08,6.11,0,12.06,2.26,13.5,7.08l31,101.06a7,7,0,0,1,.32,1.61c0,5-7.55,8.67-13.17,8.67-3.54,0-6.27-1.12-7.07-4.18l-6.11-21.37H342l-6.11,21.37c-.8,3.06-3.53,4.18-7.07,4.18C323.24,419.64,315.68,416.11,315.68,411Zm58.66-33.27-14-49.32-14,49.32Z"/><path class="cls-6" d="M197.65,138.27a8.46,8.46,0,1,0,0-16.91H160V100.82a8.46,8.46,0,0,0-7.38-8.39v45.84H169a63.88,63.88,0,0,1-16.31,34.79v24a80.41,80.41,0,0,0,45,13.74,8.46,8.46,0,1,0,0-16.92,63.68,63.68,0,0,1-32.81-9.07A80.63,80.63,0,0,0,186,138.27Z"/><path class="cls-6" d="M404.86,409.36l-31-101.06c-1.44-4.8-7.34-7.06-13.42-7.07v27.43l13.9,49h-13.9v16.39h18.4l6.11,21.37c.8,3.06,3.53,4.18,7.07,4.18,5.62,0,13.17-3.69,13.17-8.67A7,7,0,0,0,404.86,409.36Z"/></svg>