<svg id="Capa_1" data-name="Capa 1" xmlns="http://www.w3.org/2000/svg" viewBox="0 0 322.5 128.33"><defs><style>.cls-1,.cls-2{fill:#3c3c3b;}.cls-2{stroke:#1d1d1b;}.cls-2,.cls-3{stroke-miterlimit:10;}.cls-3,.cls-4{fill:none;}.cls-3{stroke:#3c3c3b;stroke-width:11px;}.cls-5{fill:#f9be2f;}.cls-6{fill:#e94936;}</style></defs><title>logo</title><path class="cls-1" d="M81.75,37.22H57.15V30.35H117v6.87H92.31V93H81.75Z" transform="translate(-57.15 -24.52)"/><path class="cls-1" d="M237.41,88.24,217.82,27.86h10.54l9.16,30.55c2.29,7.53,4.35,15,5.73,20.88h.23c1.26-6,3.66-13.17,6.3-21l10.3-30.46h10.43L279.9,58.5a189.24,189.24,0,0,1,5.38,20.7h.23c1.6-6.63,3.78-13.35,6.19-20.88l10.19-30.46h10.19L290.21,88.24H279.78L270.05,56.8a146.52,146.52,0,0,1-5-19.71h-.23a154.64,154.64,0,0,1-5.95,19.71l-11,31.44Z" transform="translate(-57.15 -24.52)"/><path class="cls-1" d="M321.7,88.24V27.86h10.88l24.74,30.55A165,165,0,0,1,371.18,78l.23-.09a209.45,209.45,0,0,1-1.15-24.81V27.86h9.39V88.24H369.58L345.07,57.61a185.28,185.28,0,0,1-14.44-20.16l-.34.09c.57,7.61.8,14.87.8,24.9v25.8Z" transform="translate(-57.15 -24.52)"/><path class="cls-2" d="M247.15,92.56v34.83c0,13.18,7.1,18.76,16.64,18.76,10.6,0,17.38-5.76,17.38-18.76V92.56h9.32v34.31c0,18.06-11.55,25.48-27,25.48-14.62,0-25.64-6.89-25.64-25.14V92.56Z" transform="translate(-57.15 -24.52)"/><path class="cls-2" d="M320.05,99H298.33V92.56H351.2V99H329.37v52.37h-9.32Z" transform="translate(-57.15 -24.52)"/><circle class="cls-3" cx="106.84" cy="63.72" r="58.22"/><line class="cls-4" x1="95.26" y1="66.07" x2="110.88" y2="81.69"/><polygon class="cls-5" points="99.13 55.93 136.4 34.46 114.54 71.5 99.13 55.93"/><polygon class="cls-6" points="77.26 92.98 99.13 55.93 114.54 71.5 77.26 92.98"/><path class="cls-1" d="M164,82.31a5.94,5.94,0,1,0,5.9,6A5.93,5.93,0,0,0,164,82.31Z" transform="translate(-57.15 -24.52)"/></svg>
