<svg id="svg" version="1.1" xmlns="http://www.w3.org/2000/svg" xmlns:xlink="http://www.w3.org/1999/xlink" width="400" height="174.82993197278913" viewBox="0, 0, 400,174.82993197278913"><g id="svgg"><path id="path0" d="M345.606 4.547 C 345.606 4.644,345.704 4.703,345.824 4.679 C 345.944 4.655,346.028 4.720,346.009 4.824 C 345.990 4.929,346.081 5.014,346.211 5.014 C 346.396 5.014,346.403 4.945,346.246 4.693 C 346.033 4.352,345.606 4.255,345.606 4.547 M381.659 5.664 C 381.279 5.874,381.271 5.904,381.566 6.017 C 381.742 6.085,381.828 6.081,381.756 6.009 C 381.683 5.936,381.804 5.778,382.023 5.656 C 382.243 5.534,382.344 5.434,382.247 5.434 C 382.151 5.434,381.886 5.538,381.659 5.664 M381.981 6.220 C 381.873 6.504,381.810 15.815,381.810 31.572 C 381.810 55.105,381.793 56.486,381.504 56.654 C 381.228 56.815,381.227 56.833,381.490 56.838 C 381.650 56.841,381.821 56.745,381.869 56.624 C 381.918 56.504,381.964 56.556,381.971 56.741 C 381.979 56.925,382.026 57.036,382.075 56.986 C 382.165 56.896,382.289 5.772,382.199 5.772 C 382.173 5.772,382.075 5.974,381.981 6.220 M350.201 11.370 C 350.179 11.754,350.218 12.078,350.288 12.091 C 351.093 12.232,351.265 12.197,350.939 11.958 C 350.759 11.826,350.667 11.718,350.736 11.718 C 350.805 11.718,350.740 11.482,350.590 11.194 C 350.248 10.532,350.248 10.532,350.201 11.370 M272.322 14.877 C 272.322 14.979,272.401 15.014,272.497 14.954 C 272.593 14.895,272.672 14.959,272.672 15.097 C 272.672 15.235,272.802 15.457,272.961 15.589 C 273.227 15.809,273.227 15.783,272.957 15.260 C 272.672 14.710,272.322 14.498,272.322 14.877 M246.356 16.851 C 246.143 17.007,246.099 17.128,246.226 17.206 C 246.332 17.271,246.504 17.165,246.609 16.970 C 246.832 16.553,246.790 16.534,246.356 16.851 M354.648 17.660 C 354.704 17.871,354.860 18.087,354.995 18.139 C 355.423 18.303,355.413 18.088,354.973 17.675 L 354.548 17.275 354.648 17.660 M293.184 21.906 C 292.864 22.320,292.721 22.691,292.999 22.387 C 293.131 22.243,293.349 22.027,293.484 21.906 C 293.620 21.786,293.646 21.688,293.541 21.688 C 293.438 21.688,293.277 21.786,293.184 21.906 M357.674 23.339 C 357.674 23.852,357.998 24.101,358.230 23.765 C 358.348 23.594,358.364 23.639,358.286 23.918 C 358.196 24.238,358.245 24.311,358.548 24.311 L 358.922 24.311 358.548 23.787 C 358.343 23.498,358.097 23.262,358.001 23.262 C 357.906 23.262,357.877 23.183,357.936 23.087 C 357.996 22.991,357.961 22.912,357.859 22.912 C 357.757 22.912,357.674 23.104,357.674 23.339 M311.325 25.110 C 311.325 25.453,311.242 25.905,311.140 26.116 C 310.962 26.485,310.965 26.486,311.228 26.158 C 311.473 25.851,311.624 24.486,311.412 24.486 C 311.364 24.486,311.325 24.767,311.325 25.110 M244.207 25.273 C 244.209 25.658,244.245 25.795,244.286 25.577 C 244.328 25.360,244.327 25.045,244.283 24.878 C 244.239 24.710,244.205 24.889,244.207 25.273 M258.269 28.291 C 258.224 28.364,258.232 28.657,258.286 28.942 C 258.373 29.397,258.402 29.419,258.520 29.116 C 258.785 28.439,258.584 27.781,258.269 28.291 M343.555 32.007 C 343.540 32.207,343.636 32.357,343.780 32.357 C 344.063 32.357,344.075 32.323,343.925 31.934 C 343.778 31.550,343.586 31.588,343.555 32.007 M257.925 31.963 C 257.884 32.035,257.881 32.252,257.918 32.444 C 257.955 32.637,258.001 32.932,258.020 33.100 C 258.039 33.268,258.118 33.406,258.195 33.406 C 258.319 33.406,258.259 32.884,258.063 32.237 C 258.028 32.123,258.093 31.991,258.208 31.945 C 258.369 31.879,258.369 31.857,258.209 31.846 C 258.094 31.838,257.967 31.891,257.925 31.963 M344.142 32.226 C 343.967 32.877,343.999 33.202,344.206 32.882 C 344.319 32.707,344.377 32.692,344.379 32.838 C 344.380 32.958,344.470 33.037,344.578 33.013 C 344.686 32.989,344.815 33.078,344.863 33.212 C 344.921 33.370,344.876 33.409,344.736 33.322 C 344.406 33.118,344.816 33.817,345.203 34.117 C 345.504 34.351,345.505 34.346,345.216 34.006 C 344.946 33.688,344.942 33.616,345.174 33.355 C 345.317 33.193,345.388 33.093,345.330 33.132 C 345.099 33.289,344.381 32.460,344.479 32.149 C 344.534 31.975,344.505 31.832,344.413 31.832 C 344.322 31.832,344.200 32.009,344.142 32.226 M276.919 33.975 C 276.934 34.239,277.007 34.456,277.082 34.456 C 277.250 34.456,277.240 34.299,277.043 33.843 C 276.913 33.542,276.896 33.560,276.919 33.975 M278.404 38.172 C 278.362 38.293,278.385 38.588,278.455 38.828 C 278.567 39.209,278.586 39.180,278.601 38.610 C 278.619 37.944,278.543 37.776,278.404 38.172 M228.004 38.578 C 227.925 38.783,227.966 38.839,228.146 38.770 C 228.285 38.717,228.433 38.767,228.474 38.882 C 228.515 38.997,228.599 39.044,228.661 38.987 C 228.723 38.931,228.625 38.750,228.444 38.586 C 228.139 38.311,228.107 38.310,228.004 38.578 M348.768 39.283 C 348.966 39.521,349.662 39.549,349.517 39.314 C 349.469 39.236,349.356 39.218,349.266 39.273 C 349.177 39.328,349.104 39.303,349.104 39.217 C 349.104 39.132,348.987 39.061,348.844 39.061 C 348.654 39.061,348.634 39.121,348.768 39.283 M240.211 39.918 C 240.028 40.133,239.996 40.218,240.140 40.108 C 240.284 39.998,240.479 39.907,240.573 39.906 C 240.667 39.905,240.772 39.819,240.806 39.716 C 240.915 39.390,240.558 39.511,240.211 39.918 M369.788 40.903 C 369.803 41.103,369.919 41.307,370.045 41.356 C 370.229 41.426,370.234 41.365,370.072 41.054 C 369.787 40.506,369.757 40.490,369.788 40.903 M229.474 44.731 C 229.478 44.956,229.722 45.210,229.991 45.269 C 230.183 45.311,230.165 45.233,229.920 44.963 C 229.568 44.574,229.469 44.523,229.474 44.731 M254.933 45.321 C 254.748 45.501,254.637 45.688,254.686 45.737 C 254.735 45.786,254.919 45.668,255.094 45.474 C 255.506 45.020,255.373 44.894,254.933 45.321 M353.288 45.882 C 353.734 46.373,353.830 46.433,353.820 46.218 C 353.817 46.146,353.601 45.935,353.339 45.751 L 352.864 45.415 353.288 45.882 M287.592 50.284 C 287.593 50.861,287.626 51.076,287.665 50.762 C 287.704 50.448,287.703 49.975,287.663 49.713 C 287.623 49.450,287.591 49.707,287.592 50.284 M375.047 49.577 C 375.047 49.717,375.143 49.869,375.261 49.914 C 375.399 49.967,375.443 49.877,375.386 49.659 C 375.283 49.264,375.047 49.207,375.047 49.577 M253.358 50.488 C 253.309 50.617,253.335 50.721,253.417 50.721 C 253.498 50.721,253.652 50.617,253.758 50.488 C 253.904 50.312,253.890 50.255,253.700 50.255 C 253.561 50.255,253.407 50.360,253.358 50.488 M376.866 52.226 C 376.809 52.283,376.847 52.518,376.951 52.747 C 377.125 53.128,377.160 53.138,377.357 52.868 C 377.700 52.399,377.264 51.828,376.866 52.226 M152.158 56.799 L 151.202 57.805 152.208 56.849 C 152.761 56.323,153.214 55.871,153.214 55.843 C 153.214 55.713,153.047 55.865,152.158 56.799 M381.577 57.135 C 381.403 57.309,381.436 57.718,381.624 57.718 C 381.715 57.718,381.777 57.560,381.762 57.368 C 381.732 56.972,381.735 56.976,381.577 57.135 M148.282 59.977 L 147.355 60.953 148.239 60.118 C 148.726 59.659,149.167 59.326,149.220 59.379 C 149.273 59.432,149.405 59.368,149.513 59.238 C 150.114 58.513,149.085 59.131,148.282 59.977 M381.747 59.204 C 381.790 59.316,381.932 59.408,382.063 59.408 C 382.194 59.408,382.266 59.316,382.223 59.204 C 382.180 59.092,382.038 59.000,381.907 59.000 C 381.776 59.000,381.704 59.092,381.747 59.204 M250.462 61.172 C 250.463 61.436,250.541 61.771,250.634 61.915 C 250.758 62.107,250.804 61.979,250.806 61.434 C 250.808 61.025,250.730 60.691,250.634 60.691 C 250.538 60.691,250.460 60.907,250.462 61.172 M159.871 61.289 C 159.751 61.434,159.735 61.576,159.832 61.635 C 159.922 61.691,160.087 61.626,160.199 61.492 C 160.319 61.347,160.335 61.205,160.238 61.146 C 160.148 61.090,159.983 61.155,159.871 61.289 M232.794 62.178 C 232.973 62.393,232.959 62.440,232.718 62.440 C 232.556 62.440,232.468 62.511,232.522 62.598 C 232.575 62.686,232.772 62.717,232.959 62.668 C 233.308 62.577,233.107 61.915,232.731 61.915 C 232.646 61.915,232.674 62.033,232.794 62.178 M138.522 68.309 C 138.522 68.471,138.440 68.531,138.320 68.457 C 138.192 68.378,138.166 68.410,138.248 68.543 C 138.347 68.703,138.437 68.705,138.623 68.550 C 138.758 68.438,138.825 68.277,138.772 68.192 C 138.627 67.956,138.522 68.006,138.522 68.309 M156.690 69.174 C 156.678 69.222,156.655 69.359,156.638 69.480 C 156.622 69.600,156.508 69.677,156.385 69.650 C 156.259 69.623,156.214 69.688,156.281 69.797 C 156.427 70.032,156.758 69.756,156.817 69.350 C 156.852 69.112,156.743 68.961,156.690 69.174 M135.889 69.917 L 135.286 70.573 135.942 69.970 C 136.553 69.409,136.679 69.261,136.545 69.261 C 136.516 69.261,136.221 69.556,135.889 69.917 M133.017 72.715 C 132.396 73.291,131.989 73.976,132.428 73.704 C 132.522 73.646,132.562 73.562,132.518 73.518 C 132.474 73.473,132.763 73.129,133.162 72.753 C 133.561 72.376,133.848 72.068,133.800 72.069 C 133.752 72.069,133.400 72.359,133.017 72.715 M124.750 78.360 C 124.167 78.596,123.657 79.554,123.656 80.412 C 123.656 80.821,123.498 81.449,123.306 81.808 C 123.070 82.248,122.956 82.795,122.956 83.485 C 122.956 84.469,122.918 84.555,121.995 85.667 C 121.389 86.398,120.995 87.053,120.928 87.444 C 120.870 87.784,120.672 88.383,120.490 88.774 C 120.307 89.165,120.157 89.844,120.157 90.283 C 120.157 90.794,120.059 91.163,119.884 91.308 C 119.460 91.660,119.168 92.353,119.043 93.303 C 118.962 93.927,118.785 94.321,118.417 94.703 C 117.870 95.270,117.534 95.988,117.534 96.587 C 117.534 96.790,117.413 97.089,117.265 97.253 C 117.116 97.417,116.930 97.935,116.851 98.404 C 116.772 98.873,116.579 99.493,116.422 99.781 C 116.265 100.070,116.136 100.443,116.136 100.611 C 116.135 100.778,115.862 101.272,115.530 101.708 C 115.197 102.144,114.873 102.775,114.810 103.110 C 114.747 103.446,114.547 104.012,114.366 104.368 C 114.184 104.724,114.036 105.278,114.036 105.599 C 114.036 105.920,113.925 106.398,113.788 106.661 C 113.652 106.924,113.485 107.451,113.415 107.833 C 113.346 108.214,113.067 108.833,112.794 109.209 C 112.522 109.584,112.348 109.970,112.407 110.066 C 112.467 110.163,112.432 110.190,112.330 110.127 C 112.060 109.960,111.361 111.505,111.445 112.081 C 111.489 112.381,111.399 112.684,111.204 112.889 C 111.033 113.069,110.845 113.499,110.787 113.845 C 110.728 114.190,110.245 115.350,109.713 116.423 C 109.131 117.595,108.800 118.460,108.882 118.592 C 108.970 118.735,108.947 118.768,108.816 118.687 C 108.685 118.607,108.614 118.707,108.614 118.973 C 108.614 119.199,108.456 119.693,108.264 120.070 C 107.418 121.730,108.542 125.485,109.676 124.784 C 109.807 124.703,109.848 124.723,109.779 124.834 C 109.623 125.086,110.067 125.230,111.000 125.230 C 111.471 125.230,111.740 125.161,111.676 125.057 C 111.616 124.960,111.681 124.927,111.824 124.981 C 112.403 125.204,115.251 123.098,115.113 122.549 C 115.093 122.470,115.155 122.454,115.251 122.513 C 115.494 122.663,116.332 122.084,116.194 121.860 C 116.131 121.760,116.163 121.728,116.263 121.790 C 116.363 121.852,116.546 121.780,116.671 121.631 C 116.795 121.481,117.121 121.242,117.396 121.100 C 117.670 120.958,117.847 120.765,117.789 120.670 C 117.731 120.576,117.757 120.520,117.847 120.547 C 117.938 120.573,118.650 119.985,119.430 119.239 C 120.211 118.494,120.934 117.884,121.038 117.884 C 121.142 117.884,121.179 117.806,121.121 117.711 C 121.057 117.608,121.136 117.585,121.314 117.653 C 121.534 117.737,121.576 117.706,121.471 117.537 C 121.374 117.379,121.395 117.347,121.537 117.434 C 121.775 117.582,122.299 117.220,122.164 117.001 C 122.115 116.923,122.168 116.801,122.280 116.732 C 122.417 116.647,122.441 116.687,122.353 116.851 C 122.281 116.986,122.485 116.804,122.807 116.447 C 123.129 116.089,123.592 115.751,123.835 115.694 C 124.078 115.638,125.010 114.881,125.905 114.012 C 126.801 113.144,127.763 112.353,128.043 112.255 C 128.323 112.158,128.509 112.008,128.456 111.922 C 128.403 111.836,128.465 111.807,128.595 111.856 C 128.872 111.963,129.668 110.961,129.510 110.705 C 129.450 110.608,129.466 110.546,129.545 110.566 C 129.820 110.637,131.000 109.803,130.887 109.619 C 130.817 109.507,130.857 109.486,130.987 109.567 C 131.235 109.720,132.092 108.997,131.945 108.759 C 131.893 108.674,131.916 108.627,131.998 108.653 C 132.079 108.680,132.441 108.375,132.802 107.976 C 133.163 107.577,133.744 107.115,134.093 106.949 C 135.676 106.198,137.123 104.999,136.816 104.693 C 136.750 104.627,136.828 104.623,136.989 104.685 C 137.199 104.766,137.737 104.358,138.907 103.230 C 139.802 102.368,140.848 101.503,141.233 101.308 C 141.618 101.114,142.189 100.672,142.503 100.327 C 142.817 99.982,143.386 99.540,143.767 99.345 C 144.676 98.881,145.432 97.432,144.775 97.414 C 144.530 97.407,143.102 96.378,141.510 95.059 C 140.693 94.383,140.468 94.094,140.514 93.787 C 140.547 93.568,140.494 93.339,140.396 93.279 C 140.293 93.216,140.270 93.255,140.342 93.370 C 140.410 93.481,140.403 93.573,140.325 93.573 C 140.247 93.574,139.760 93.895,139.241 94.288 C 138.723 94.681,137.942 95.110,137.505 95.242 C 137.058 95.376,136.547 95.687,136.335 95.953 C 135.591 96.885,134.378 96.775,132.072 95.564 C 131.002 95.002,130.127 94.437,130.127 94.309 C 130.127 94.181,130.049 94.125,129.954 94.183 C 129.855 94.245,129.826 94.174,129.886 94.017 C 130.043 93.608,129.510 92.922,128.725 92.522 C 128.168 92.237,128.028 92.070,128.028 91.686 C 128.028 91.422,127.871 90.912,127.678 90.553 C 127.195 89.651,127.194 87.854,127.678 87.062 C 127.870 86.747,128.027 86.209,128.027 85.868 C 128.028 85.526,128.100 85.172,128.188 85.081 C 128.521 84.736,129.412 82.951,129.497 82.457 C 129.576 82.000,129.560 81.976,129.356 82.247 C 129.111 82.574,128.728 82.661,128.728 82.390 C 128.728 82.301,128.563 82.175,128.363 82.112 C 127.109 81.713,125.496 79.034,126.129 78.401 C 126.333 78.197,125.233 78.164,124.750 78.360 M131.962 80.108 C 131.901 80.206,131.787 80.246,131.709 80.197 C 131.630 80.149,131.458 80.246,131.327 80.413 C 131.117 80.682,131.121 80.692,131.367 80.500 C 131.520 80.381,131.686 80.323,131.736 80.373 C 131.785 80.423,131.926 80.343,132.047 80.197 C 132.169 80.050,132.224 79.930,132.170 79.930 C 132.116 79.930,132.022 80.010,131.962 80.108 M138.589 81.459 C 138.770 81.672,138.978 81.809,139.050 81.764 C 139.179 81.685,139.702 82.198,139.615 82.318 C 139.591 82.351,139.599 82.359,139.632 82.335 C 139.749 82.251,140.266 82.770,140.189 82.894 C 140.147 82.963,140.230 83.020,140.375 83.020 C 140.530 83.020,140.300 82.677,139.809 82.179 C 139.353 81.716,138.944 81.374,138.899 81.419 C 138.853 81.464,138.691 81.405,138.538 81.287 C 138.363 81.152,138.381 81.216,138.589 81.459 M242.878 91.744 C 242.931 91.883,243.065 91.945,243.175 91.882 C 243.285 91.819,243.191 91.970,242.966 92.218 C 242.473 92.759,242.569 93.416,243.119 93.272 C 243.370 93.206,243.442 93.070,243.387 92.765 C 243.345 92.536,243.388 92.348,243.481 92.348 C 243.726 92.348,243.356 91.712,243.040 91.590 C 242.866 91.524,242.813 91.574,242.878 91.744 M147.630 91.895 C 147.490 92.064,147.483 92.178,147.608 92.255 C 147.709 92.318,147.798 92.344,147.805 92.315 C 147.975 91.629,147.934 91.529,147.630 91.895 M243.638 93.408 C 243.638 93.510,243.559 93.544,243.463 93.485 C 243.367 93.425,243.288 93.500,243.288 93.649 C 243.288 93.799,243.368 93.922,243.465 93.922 C 243.583 93.922,243.645 101.944,243.653 118.102 C 243.665 145.435,243.644 142.959,243.862 142.741 C 243.953 142.650,243.978 142.495,243.918 142.398 C 243.857 142.300,243.810 131.196,243.812 117.722 C 243.814 104.247,243.775 93.223,243.727 93.223 C 243.678 93.223,243.638 93.306,243.638 93.408 M366.144 106.495 C 366.242 106.654,365.833 107.093,365.703 106.968 C 365.664 106.931,365.530 107.010,365.406 107.145 C 365.064 107.517,365.437 107.437,365.958 107.027 C 366.433 106.653,366.559 106.340,366.234 106.340 C 366.132 106.340,366.092 106.410,366.144 106.495 M324.443 139.861 C 324.443 171.622,324.443 171.633,324.792 171.316 C 325.140 171.002,325.142 170.777,325.142 139.651 C 325.142 106.782,325.168 108.089,324.516 108.089 C 324.475 108.089,324.443 122.386,324.443 139.861 M273.201 143.063 C 273.060 143.152,272.997 143.279,273.063 143.344 C 273.223 143.504,273.721 143.300,273.721 143.075 C 273.721 142.853,273.540 142.849,273.201 143.063 M292.152 146.425 C 291.935 146.772,291.920 147.092,292.120 147.092 C 292.218 147.092,292.255 146.979,292.202 146.841 C 292.149 146.703,292.199 146.556,292.314 146.515 C 292.429 146.474,292.472 146.385,292.409 146.318 C 292.347 146.250,292.231 146.298,292.152 146.425 M291.397 149.265 C 291.234 149.461,291.232 149.597,291.385 149.838 C 291.575 150.134,291.581 150.132,291.481 149.817 C 291.421 149.629,291.471 149.422,291.594 149.346 C 291.714 149.271,291.768 149.165,291.712 149.109 C 291.656 149.053,291.515 149.124,291.397 149.265 M290.110 155.094 C 290.069 155.166,290.094 155.619,290.163 156.100 L 290.290 156.974 290.313 155.969 C 290.335 155.023,290.280 154.787,290.110 155.094 M261.939 157.774 C 261.438 158.168,261.319 158.511,261.740 158.349 C 261.885 158.294,262.003 158.151,262.003 158.032 C 262.003 157.912,262.180 157.729,262.396 157.625 C 262.613 157.521,262.702 157.430,262.595 157.423 C 262.487 157.417,262.192 157.575,261.939 157.774 M289.287 157.922 L 289.082 158.373 289.534 157.949 C 290.064 157.453,290.057 157.470,289.739 157.470 C 289.603 157.470,289.399 157.673,289.287 157.922 M231.570 164.811 C 231.570 164.841,231.816 165.098,232.116 165.380 C 232.499 165.740,232.596 165.784,232.440 165.527 C 232.248 165.209,231.570 164.651,231.570 164.811 M239.427 171.293 C 239.901 171.807,239.994 171.857,239.869 171.531 C 239.822 171.409,239.608 171.202,239.393 171.071 C 239.021 170.844,239.023 170.854,239.427 171.293 M325.142 172.890 C 325.368 173.131,325.638 173.325,325.741 173.322 C 325.845 173.319,325.791 173.237,325.623 173.139 C 325.455 173.041,325.317 172.846,325.317 172.707 C 325.317 172.567,325.185 172.453,325.024 172.453 C 324.782 172.453,324.802 172.528,325.142 172.890 " stroke="none" fill="#f9462e" fill-rule="evenodd"></path><path id="path1" d="M0.003 10.975 C 0.004 15.641,0.064 18.012,0.175 17.840 C 0.409 17.478,0.409 3.848,0.175 3.848 C 0.061 3.848,0.001 6.338,0.003 10.975 M381.531 4.916 C 381.207 5.274,381.197 5.992,381.148 30.845 C 381.103 53.852,381.145 58.139,381.410 57.410 C 381.454 57.290,381.549 57.227,381.621 57.271 C 381.693 57.316,381.752 57.238,381.752 57.098 C 381.752 56.958,381.627 56.841,381.475 56.838 C 381.240 56.833,381.245 56.805,381.504 56.654 C 381.793 56.486,381.810 55.100,381.810 31.463 C 381.810 11.510,381.854 6.473,382.029 6.563 C 382.149 6.624,382.038 6.481,381.782 6.245 L 381.316 5.815 381.730 5.593 C 382.050 5.422,382.108 5.302,381.984 5.070 C 381.895 4.904,381.872 4.719,381.933 4.658 C 381.994 4.597,382.003 4.547,381.954 4.547 C 381.905 4.547,381.715 4.713,381.531 4.916 M221.392 6.559 C 221.481 6.751,221.597 7.027,221.650 7.171 C 221.734 7.398,221.750 7.396,221.761 7.161 C 221.769 7.011,221.653 6.735,221.503 6.549 C 221.236 6.214,221.234 6.215,221.392 6.559 M343.757 31.829 C 343.757 32.009,343.812 32.122,343.879 32.081 C 343.946 32.039,344.041 32.104,344.090 32.225 C 344.147 32.366,344.184 32.343,344.193 32.160 C 344.200 32.003,344.105 31.791,343.982 31.688 C 343.812 31.548,343.757 31.582,343.757 31.829 M344.577 32.663 C 344.631 33.008,344.534 33.118,344.381 32.882 C 344.238 32.660,344.211 32.670,344.209 32.944 C 344.207 33.171,344.291 33.236,344.488 33.161 C 344.693 33.082,344.741 33.127,344.665 33.326 C 344.601 33.493,344.632 33.555,344.745 33.485 C 344.847 33.422,344.888 33.261,344.836 33.126 C 344.784 32.992,344.823 32.882,344.922 32.882 C 345.021 32.882,345.053 32.803,344.993 32.707 C 344.868 32.503,344.546 32.470,344.577 32.663 M304.749 47.250 C 304.675 47.371,304.701 47.405,304.813 47.336 C 304.917 47.272,305.038 47.358,305.082 47.527 C 305.144 47.762,305.168 47.742,305.183 47.442 C 305.205 47.024,304.957 46.914,304.749 47.250 M158.678 51.887 C 158.558 51.936,158.499 52.040,158.547 52.119 C 158.596 52.198,158.466 52.219,158.259 52.164 C 158.036 52.106,157.925 52.135,157.987 52.236 C 158.051 52.339,157.878 52.376,157.552 52.328 C 157.182 52.274,157.050 52.310,157.133 52.445 C 157.210 52.569,157.158 52.604,156.991 52.540 C 156.678 52.420,155.767 53.264,155.928 53.526 C 155.989 53.623,155.934 53.682,155.807 53.655 C 155.679 53.629,155.594 53.703,155.617 53.820 C 155.640 53.936,155.549 53.990,155.416 53.939 C 155.282 53.888,155.114 53.942,155.041 54.060 C 154.951 54.205,154.982 54.228,155.138 54.132 C 155.290 54.038,155.324 54.059,155.240 54.195 C 155.171 54.308,155.050 54.361,154.972 54.313 C 154.791 54.200,150.611 58.375,150.749 58.531 C 150.806 58.595,150.756 58.593,150.638 58.525 C 150.256 58.305,147.104 60.819,147.395 61.110 C 147.440 61.155,147.299 61.145,147.082 61.089 C 146.803 61.016,146.726 61.047,146.817 61.195 C 146.910 61.345,146.826 61.374,146.522 61.298 C 146.020 61.172,144.917 61.988,145.066 62.376 C 145.116 62.507,145.073 62.615,144.969 62.615 C 144.866 62.615,144.822 62.720,144.871 62.849 C 144.921 62.978,144.891 63.195,144.805 63.330 C 144.695 63.505,144.648 63.513,144.646 63.358 C 144.645 63.238,144.447 63.139,144.206 63.139 C 143.966 63.139,143.769 63.216,143.769 63.309 C 143.769 63.402,143.647 63.431,143.498 63.374 C 142.932 63.157,141.681 64.920,142.181 65.230 C 142.321 65.316,142.202 65.403,141.848 65.474 C 141.490 65.546,141.341 65.655,141.423 65.788 C 141.498 65.909,141.474 65.945,141.363 65.877 C 141.119 65.726,140.596 65.930,140.718 66.129 C 140.771 66.214,140.679 66.232,140.514 66.169 C 140.312 66.091,140.255 66.119,140.339 66.256 C 140.417 66.381,140.375 66.424,140.230 66.369 C 139.911 66.246,138.970 67.246,139.142 67.525 C 139.228 67.664,139.204 67.696,139.074 67.616 C 138.963 67.547,138.860 67.594,138.845 67.720 C 138.831 67.846,138.809 68.028,138.797 68.124 C 138.747 68.526,138.503 68.684,138.063 68.600 C 137.719 68.534,137.631 68.568,137.731 68.730 C 137.830 68.890,137.767 68.917,137.495 68.831 C 137.266 68.758,137.123 68.788,137.123 68.910 C 137.123 69.018,137.051 69.062,136.963 69.008 C 136.589 68.777,134.556 71.026,134.792 71.409 C 134.853 71.508,134.822 71.539,134.723 71.478 C 134.518 71.351,133.358 72.151,132.842 72.777 C 132.578 73.097,132.642 73.072,133.112 72.672 C 133.451 72.383,133.272 72.587,132.716 73.124 C 132.159 73.662,131.762 74.164,131.833 74.239 C 131.905 74.315,131.785 74.322,131.567 74.255 C 131.144 74.125,130.191 74.604,129.756 75.166 C 129.577 75.397,129.625 75.386,129.955 75.120 L 130.389 74.770 130.060 75.160 C 129.879 75.374,129.664 75.509,129.584 75.459 C 129.124 75.174,127.685 76.528,127.953 76.993 C 128.025 77.117,128.024 77.165,127.950 77.099 C 127.877 77.032,127.648 77.158,127.441 77.378 C 127.235 77.598,126.987 77.752,126.891 77.721 C 126.795 77.690,126.519 77.827,126.279 78.025 C 126.038 78.224,125.960 78.329,126.104 78.258 C 126.302 78.161,126.319 78.182,126.173 78.340 C 125.513 79.058,127.042 81.692,128.363 82.112 C 128.563 82.175,128.728 82.301,128.728 82.390 C 128.728 82.659,129.109 82.575,129.377 82.247 C 129.515 82.079,129.578 82.040,129.517 82.160 C 129.456 82.280,129.449 82.379,129.500 82.379 C 129.585 82.379,130.079 81.515,130.174 81.200 C 130.196 81.127,130.276 81.087,130.351 81.112 C 130.549 81.178,131.481 80.670,131.636 80.412 C 131.716 80.279,131.634 80.296,131.428 80.455 C 131.115 80.697,131.107 80.694,131.327 80.413 C 131.458 80.246,131.624 80.145,131.694 80.188 C 131.765 80.232,131.972 80.133,132.155 79.968 C 132.523 79.636,136.493 79.502,136.291 79.829 C 136.236 79.917,136.316 79.941,136.469 79.883 C 136.628 79.822,136.847 79.902,136.979 80.072 C 137.189 80.341,137.179 80.346,136.861 80.127 C 136.668 79.995,136.733 80.094,137.004 80.348 C 137.276 80.602,137.571 80.764,137.660 80.709 C 137.749 80.654,137.822 80.680,137.822 80.766 C 137.822 80.915,138.409 81.248,138.784 81.311 C 138.992 81.347,140.607 82.913,140.591 83.063 C 140.510 83.793,140.655 84.827,140.823 84.723 C 140.948 84.645,140.977 84.675,140.899 84.802 C 140.732 85.072,140.950 85.735,141.163 85.604 C 141.254 85.547,141.318 85.566,141.304 85.645 C 141.290 85.724,141.292 85.868,141.308 85.964 C 141.516 87.229,141.263 91.551,140.949 92.083 C 140.753 92.415,140.643 92.768,140.705 92.867 C 140.766 92.966,140.742 93.048,140.650 93.048 C 140.558 93.048,140.437 93.170,140.379 93.319 C 140.322 93.468,140.342 93.549,140.423 93.499 C 140.504 93.449,140.543 93.583,140.510 93.796 C 140.449 94.187,140.649 94.381,143.207 96.413 C 144.758 97.644,145.833 97.745,145.401 96.619 C 145.321 96.411,145.349 96.354,145.488 96.440 C 145.669 96.551,145.806 95.821,145.709 95.265 C 145.696 95.185,145.756 95.165,145.843 95.219 C 146.096 95.375,146.422 94.381,146.361 93.639 C 146.308 92.996,146.346 92.937,147.092 92.523 C 147.991 92.024,148.491 91.198,148.491 90.211 C 148.491 89.853,148.645 89.263,148.833 88.899 C 149.031 88.515,149.190 87.819,149.212 87.240 C 149.233 86.691,149.312 86.280,149.387 86.327 C 149.462 86.373,149.620 86.090,149.738 85.697 C 149.856 85.303,150.095 84.905,150.269 84.812 C 150.781 84.538,151.153 83.634,151.087 82.823 C 151.044 82.296,151.116 81.994,151.339 81.760 C 151.510 81.580,151.612 81.336,151.567 81.217 C 151.522 81.099,151.554 80.977,151.640 80.947 C 151.725 80.917,151.813 80.443,151.834 79.894 C 151.856 79.346,151.928 78.930,151.994 78.971 C 152.131 79.056,152.568 78.177,152.448 78.056 C 152.404 78.013,152.523 77.822,152.713 77.633 C 152.943 77.402,153.019 77.169,152.942 76.926 C 152.865 76.683,152.891 76.603,153.020 76.683 C 153.189 76.787,153.299 76.463,153.237 76.045 C 153.226 75.976,153.320 75.959,153.446 76.007 C 153.750 76.124,154.334 75.463,154.166 75.192 C 154.076 75.047,154.108 75.024,154.264 75.121 C 154.435 75.226,154.468 75.166,154.395 74.885 C 154.340 74.677,154.367 74.552,154.454 74.606 C 154.589 74.689,154.709 73.861,154.629 73.402 C 154.616 73.323,154.677 73.303,154.765 73.357 C 154.969 73.483,155.178 72.965,155.024 72.716 C 154.952 72.600,154.993 72.582,155.133 72.669 C 155.281 72.760,155.331 72.728,155.281 72.576 C 155.238 72.448,155.353 72.194,155.537 72.011 C 155.728 71.819,155.833 71.535,155.782 71.343 C 155.734 71.160,155.766 71.054,155.854 71.108 C 155.941 71.161,156.012 70.925,156.012 70.583 C 156.012 70.241,156.096 69.961,156.197 69.961 C 156.299 69.961,156.327 69.870,156.258 69.759 C 156.186 69.643,156.209 69.604,156.312 69.667 C 156.671 69.889,157.120 69.090,157.204 68.078 C 157.249 67.526,157.413 66.881,157.568 66.644 C 157.734 66.390,157.759 66.269,157.630 66.349 C 157.334 66.531,157.354 66.370,157.667 66.057 C 157.808 65.917,157.941 65.522,157.964 65.181 C 157.987 64.840,158.060 64.595,158.126 64.635 C 158.352 64.775,158.673 63.675,158.608 62.985 C 158.545 62.325,158.574 62.280,159.280 61.937 C 160.096 61.540,160.655 60.842,160.493 60.421 C 160.426 60.245,160.459 60.192,160.587 60.271 C 160.723 60.355,160.757 60.246,160.696 59.926 C 160.647 59.669,160.676 59.415,160.761 59.363 C 160.846 59.310,160.862 59.182,160.798 59.078 C 160.733 58.973,160.760 58.937,160.857 58.997 C 161.162 59.185,161.414 58.316,161.450 56.949 C 161.469 56.223,161.545 55.666,161.617 55.711 C 161.690 55.756,161.836 55.545,161.942 55.243 C 162.591 53.380,160.446 51.175,158.678 51.887 M381.648 58.538 C 381.641 58.749,381.714 58.970,381.810 59.029 C 382.017 59.157,382.017 58.986,381.810 58.505 C 381.665 58.167,381.659 58.169,381.648 58.538 M234.421 61.915 C 234.421 62.444,234.453 62.661,234.493 62.396 C 234.534 62.132,234.534 61.699,234.493 61.434 C 234.453 61.170,234.421 61.386,234.421 61.915 M136.598 69.314 C 136.598 69.343,136.303 69.639,135.942 69.970 L 135.286 70.573 135.889 69.917 C 136.450 69.306,136.598 69.181,136.598 69.314 M139.564 82.247 C 139.993 82.704,140.367 83.078,140.395 83.078 C 140.526 83.078,140.387 82.921,139.615 82.196 L 138.784 81.417 139.564 82.247 M243.449 91.955 C 243.563 92.177,243.578 92.348,243.485 92.348 C 243.394 92.348,243.345 92.486,243.378 92.654 C 243.410 92.822,243.444 93.118,243.452 93.310 C 243.465 93.576,243.505 93.603,243.619 93.421 C 243.747 93.220,243.788 93.220,243.880 93.421 C 243.941 93.553,243.956 93.314,243.915 92.892 C 243.874 92.470,243.706 91.998,243.543 91.843 C 243.268 91.581,243.261 91.588,243.449 91.955 M243.548 117.884 C 243.548 131.111,243.569 136.522,243.594 129.908 C 243.620 123.295,243.620 112.473,243.594 105.859 C 243.569 99.246,243.548 104.657,243.548 117.884 M273.021 142.876 C 273.021 142.962,273.126 143.072,273.255 143.122 C 273.383 143.171,273.488 143.101,273.488 142.965 C 273.488 142.830,273.383 142.720,273.255 142.720 C 273.126 142.720,273.021 142.790,273.021 142.876 M324.652 171.439 C 324.380 171.711,324.386 171.870,324.667 171.870 C 324.791 171.870,324.892 171.726,324.892 171.549 C 324.892 171.169,324.913 171.178,324.652 171.439 " stroke="none" fill="#f9be2e" fill-rule="evenodd"></path><path id="path2" d="M120.857 0.262 C 120.617 0.400,119.976 0.515,119.433 0.519 C 118.836 0.522,118.146 0.661,117.684 0.871 C 117.239 1.073,116.537 1.218,115.998 1.220 C 114.984 1.225,114.087 1.528,113.697 1.998 C 113.289 2.491,111.919 3.091,110.908 3.220 C 109.923 3.347,108.153 4.137,107.739 4.635 C 107.428 5.010,105.576 5.947,105.145 5.947 C 104.752 5.947,101.322 7.664,100.622 8.212 C 100.352 8.423,99.743 8.846,99.269 9.151 C 98.796 9.457,98.323 9.764,98.220 9.834 C 98.117 9.904,97.708 10.042,97.311 10.141 C 96.782 10.273,96.317 10.603,95.562 11.384 C 94.997 11.968,94.180 12.631,93.747 12.856 C 93.314 13.082,92.252 13.986,91.386 14.867 C 90.520 15.747,89.440 16.658,88.985 16.892 C 88.513 17.135,88.045 17.536,87.894 17.828 C 87.749 18.110,87.479 18.388,87.295 18.446 C 86.802 18.602,84.331 21.251,84.203 21.760 C 84.131 22.048,83.905 22.259,83.537 22.380 C 82.332 22.778,80.105 25.434,80.105 26.474 C 80.105 26.765,79.901 26.964,79.308 27.252 C 78.497 27.646,78.006 28.387,78.006 29.218 C 78.006 29.437,77.570 30.030,76.942 30.667 C 76.231 31.387,75.636 32.226,75.149 33.195 C 74.749 33.992,74.313 34.858,74.181 35.119 C 74.049 35.379,73.601 35.947,73.185 36.380 C 72.517 37.075,70.660 40.424,70.660 40.934 C 70.660 41.033,70.389 41.385,70.057 41.717 C 69.670 42.104,69.414 42.558,69.345 42.979 C 69.285 43.342,69.085 43.924,68.899 44.274 C 68.713 44.624,68.561 45.099,68.561 45.330 C 68.561 45.831,67.291 48.352,66.726 48.972 C 66.106 49.653,65.763 50.463,65.763 51.244 C 65.763 51.638,65.606 52.268,65.413 52.645 C 65.221 53.023,65.063 53.513,65.063 53.736 C 65.063 53.959,64.942 54.315,64.793 54.528 C 64.645 54.740,64.475 55.328,64.417 55.834 C 64.342 56.492,64.158 56.953,63.773 57.443 C 63.310 58.035,63.226 58.303,63.172 59.367 C 63.135 60.102,62.974 60.892,62.775 61.315 C 62.591 61.706,62.440 62.353,62.440 62.753 C 62.440 63.173,62.292 63.723,62.091 64.053 C 61.816 64.503,61.741 64.936,61.741 66.070 C 61.740 67.178,61.659 67.665,61.390 68.166 C 61.101 68.707,61.041 69.153,61.041 70.769 C 61.041 72.673,61.030 72.726,60.589 73.015 C 59.629 73.644,59.641 73.463,59.641 86.842 C 59.641 100.239,59.607 99.754,60.600 100.534 C 61.022 100.867,61.041 100.960,61.041 102.768 C 61.041 104.269,61.110 104.801,61.377 105.367 C 61.613 105.865,61.731 106.557,61.771 107.678 C 61.814 108.898,61.900 109.357,62.134 109.615 C 62.327 109.828,62.440 110.235,62.440 110.715 C 62.440 111.134,62.590 111.797,62.773 112.188 C 62.956 112.579,63.141 113.314,63.185 113.822 C 63.245 114.522,63.397 114.911,63.814 115.430 C 64.290 116.022,64.364 116.252,64.364 117.137 C 64.364 117.814,64.482 118.391,64.714 118.846 C 64.906 119.223,65.063 119.687,65.063 119.877 C 65.063 120.067,65.213 120.542,65.396 120.933 C 65.579 121.324,65.765 122.060,65.808 122.569 C 65.869 123.277,66.015 123.647,66.431 124.143 C 66.729 124.500,67.262 125.365,67.615 126.064 C 67.968 126.763,68.325 127.378,68.409 127.430 C 68.493 127.482,68.562 127.775,68.562 128.082 C 68.562 128.389,68.720 128.898,68.912 129.213 C 69.104 129.528,69.261 129.985,69.261 130.230 C 69.261 130.811,69.538 131.329,70.157 131.910 C 70.434 132.169,70.660 132.528,70.660 132.709 C 70.660 132.889,70.919 133.346,71.234 133.725 C 71.550 134.103,71.895 134.611,72.000 134.854 C 72.105 135.097,72.403 135.547,72.661 135.854 C 73.325 136.643,73.907 137.797,74.032 138.572 C 74.095 138.967,74.425 139.594,74.848 140.125 C 75.238 140.615,75.557 141.116,75.557 141.238 C 75.557 141.360,76.108 142.050,76.782 142.771 C 77.455 143.492,78.006 144.211,78.006 144.368 C 78.006 144.979,78.536 145.876,79.089 146.202 C 80.421 146.988,80.795 147.347,80.800 147.844 C 80.809 148.835,81.602 149.780,83.245 150.763 C 83.720 151.047,84.083 151.442,84.289 151.900 C 84.586 152.561,87.058 155.138,87.394 155.138 C 87.480 155.138,87.690 155.375,87.862 155.665 C 88.033 155.954,88.481 156.349,88.857 156.541 C 89.234 156.733,89.957 157.292,90.464 157.784 C 91.768 159.049,92.166 159.335,92.614 159.335 C 92.851 159.335,93.132 159.527,93.320 159.816 C 94.187 161.151,96.473 163.152,97.458 163.439 C 98.879 163.852,99.702 164.295,100.394 165.022 C 101.011 165.670,104.479 167.552,105.069 167.560 C 105.536 167.565,106.831 168.195,107.451 168.719 C 108.254 169.396,110.348 170.354,111.025 170.354 C 111.692 170.354,113.316 171.045,113.679 171.483 C 114.089 171.977,114.793 172.248,115.971 172.367 C 116.590 172.430,117.393 172.593,117.756 172.729 C 118.119 172.866,118.984 172.979,119.680 172.982 C 120.560 172.984,121.177 173.091,121.707 173.331 C 122.126 173.522,122.711 173.677,123.006 173.677 C 123.396 173.677,123.696 173.845,124.104 174.289 L 124.665 174.902 136.068 174.902 L 147.472 174.902 148.014 174.289 C 148.498 173.742,148.650 173.677,149.442 173.676 C 149.929 173.676,150.564 173.549,150.853 173.395 C 151.141 173.241,151.889 173.079,152.514 173.035 C 153.139 172.990,153.927 172.847,154.263 172.716 C 154.600 172.585,155.417 172.430,156.079 172.371 C 157.317 172.261,158.046 171.991,158.463 171.489 C 158.867 171.002,160.338 170.354,161.040 170.354 C 161.769 170.354,163.980 169.384,164.397 168.881 C 164.726 168.484,166.569 167.556,167.029 167.556 C 167.483 167.556,170.655 165.971,171.331 165.407 C 171.612 165.173,172.116 164.843,172.453 164.675 C 172.790 164.506,173.262 164.189,173.502 163.971 C 173.743 163.754,174.250 163.520,174.629 163.453 C 175.158 163.358,175.604 163.054,176.553 162.140 C 177.232 161.486,178.102 160.790,178.487 160.593 C 178.872 160.397,179.895 159.516,180.761 158.635 C 181.627 157.755,182.689 156.851,183.122 156.625 C 184.596 155.857,191.825 148.382,191.969 147.477 C 192.072 146.837,192.186 146.676,192.739 146.394 C 193.514 145.999,193.898 145.459,194.060 144.538 C 194.151 144.026,194.441 143.590,195.231 142.781 C 195.809 142.189,196.450 141.433,196.655 141.101 C 196.859 140.769,197.282 140.116,197.595 139.650 C 197.908 139.184,198.164 138.611,198.164 138.375 C 198.164 138.108,198.461 137.629,198.950 137.106 C 199.382 136.643,200.009 135.690,200.343 134.986 C 200.689 134.258,201.263 133.407,201.676 133.010 C 202.524 132.196,202.886 131.450,202.886 130.519 C 202.886 130.152,203.043 129.542,203.236 129.165 C 203.428 128.787,203.585 128.315,203.585 128.116 C 203.585 127.666,204.876 125.153,205.472 124.443 C 206.051 123.753,206.384 122.932,206.384 122.198 C 206.384 121.871,206.530 121.219,206.708 120.749 C 207.301 119.191,207.472 118.675,207.560 118.196 C 207.609 117.928,207.796 117.673,207.989 117.611 C 208.668 117.396,209.006 116.513,209.007 114.953 C 209.007 113.845,209.089 113.358,209.357 112.857 C 209.550 112.498,209.707 111.886,209.707 111.496 C 209.707 111.106,209.864 110.478,210.057 110.101 C 210.318 109.587,210.407 109.069,210.407 108.045 C 210.407 107.021,210.495 106.503,210.756 105.990 C 211.038 105.438,211.107 104.955,211.109 103.505 C 211.112 101.789,211.134 101.685,211.573 101.268 C 212.529 100.362,212.505 100.716,212.505 86.954 C 212.505 72.912,212.533 73.408,211.698 72.433 C 211.112 71.748,211.106 71.724,211.106 70.014 C 211.106 68.631,211.036 68.148,210.756 67.599 C 210.493 67.083,210.406 66.566,210.406 65.507 C 210.405 64.531,210.316 63.941,210.116 63.577 C 209.957 63.288,209.771 62.558,209.702 61.953 C 209.632 61.344,209.449 60.715,209.292 60.540 C 209.078 60.304,209.007 59.871,209.007 58.791 C 209.007 57.170,208.709 56.239,208.098 55.960 C 207.810 55.828,207.604 55.468,207.373 54.691 C 206.934 53.215,206.705 52.589,206.531 52.392 C 206.450 52.300,206.384 51.885,206.384 51.468 C 206.384 50.557,206.067 49.757,205.445 49.095 C 205.192 48.825,204.985 48.437,204.985 48.232 C 204.985 48.026,204.835 47.539,204.652 47.147 C 204.470 46.756,204.269 46.137,204.205 45.770 C 204.137 45.372,203.848 44.835,203.488 44.437 C 203.010 43.908,202.886 43.624,202.886 43.060 C 202.886 42.041,202.664 41.583,201.668 40.550 C 201.184 40.047,200.787 39.605,200.787 39.566 C 200.787 39.289,199.699 37.253,199.354 36.886 C 199.119 36.635,198.827 36.190,198.706 35.897 C 198.584 35.604,198.298 35.189,198.069 34.973 C 197.840 34.758,197.342 33.944,196.962 33.163 C 196.471 32.154,195.965 31.444,195.206 30.701 C 194.620 30.127,194.141 29.518,194.141 29.349 C 194.141 28.546,193.584 27.666,192.817 27.259 C 192.262 26.965,192.042 26.740,192.042 26.466 C 192.042 26.255,191.958 25.862,191.856 25.591 C 191.581 24.860,182.855 16.152,181.898 15.654 C 181.465 15.428,180.520 14.641,179.799 13.905 C 179.077 13.169,178.172 12.405,177.787 12.208 C 177.403 12.011,176.689 11.475,176.202 11.018 C 175.552 10.407,175.121 10.153,174.582 10.062 C 174.134 9.986,173.569 9.705,173.134 9.341 C 172.741 9.013,172.313 8.745,172.183 8.745 C 172.053 8.745,171.529 8.351,171.019 7.869 C 169.891 6.802,168.199 5.947,167.219 5.947 C 166.616 5.947,166.369 5.819,165.572 5.097 C 164.473 4.102,163.009 3.362,161.833 3.208 C 161.373 3.148,160.800 3.003,160.560 2.886 C 160.319 2.769,159.864 2.624,159.548 2.564 C 159.231 2.504,158.660 2.203,158.277 1.896 C 157.672 1.410,157.404 1.323,156.228 1.230 C 155.484 1.171,154.623 0.988,154.316 0.824 C 154.008 0.659,153.575 0.522,153.354 0.519 C 153.132 0.515,152.755 0.400,152.514 0.262 C 151.859 -0.112,121.512 -0.112,120.857 0.262 M0.800 2.605 C 0.165 2.703,-0.382 3.848,0.206 3.848 C 0.426 3.848,0.389 17.795,0.168 17.932 C -0.063 18.074,0.025 20.201,0.262 20.202 C 0.359 20.203,0.632 20.341,0.870 20.508 C 1.108 20.676,1.232 20.813,1.146 20.813 C 1.060 20.813,0.846 20.683,0.670 20.524 C 0.486 20.358,0.350 20.319,0.350 20.432 C 0.350 21.208,0.901 21.248,12.199 21.299 L 22.912 21.348 22.912 54.199 L 22.912 87.049 23.311 87.641 C 24.017 88.689,23.843 88.670,32.581 88.673 C 41.545 88.675,41.603 88.669,42.070 87.550 C 42.292 87.020,42.326 82.534,42.326 54.094 L 42.326 21.251 52.864 21.305 C 64.516 21.365,64.666 21.357,65.468 20.640 L 66.025 20.142 66.025 11.912 L 66.025 3.681 65.564 3.220 C 65.297 2.952,64.783 2.697,64.340 2.611 C 63.481 2.445,1.870 2.439,0.800 2.605 M201.191 4.041 C 199.643 4.488,199.317 6.717,200.616 7.962 C 201.111 8.436,201.137 8.533,201.137 9.889 C 201.137 11.566,201.349 12.309,202.035 13.038 C 202.508 13.541,202.536 13.658,202.536 15.099 C 202.536 16.811,202.763 17.531,203.513 18.190 C 203.974 18.596,203.969 18.579,203.448 17.965 C 202.868 17.282,202.749 16.965,203.071 16.965 C 203.173 16.965,203.212 17.037,203.157 17.126 C 203.103 17.214,203.266 17.532,203.520 17.834 C 203.953 18.348,203.979 18.484,203.949 19.999 C 203.912 21.839,204.036 22.286,204.795 23.045 C 205.309 23.559,205.334 23.652,205.334 25.003 C 205.334 26.416,205.543 27.200,206.103 27.897 L 206.385 28.247 206.284 27.897 C 206.186 27.560,206.190 27.559,206.394 27.879 C 206.522 28.080,206.594 28.771,206.576 29.628 C 206.553 30.750,206.621 31.189,206.903 31.738 C 207.189 32.295,207.258 32.765,207.258 34.137 C 207.258 36.024,207.530 36.884,208.245 37.267 C 208.630 37.473,208.658 37.589,208.658 39.021 C 208.658 40.673,208.821 41.316,209.399 41.933 C 209.794 42.354,210.160 42.470,209.952 42.108 C 209.882 41.987,209.882 41.939,209.950 42.000 C 210.018 42.060,210.090 42.966,210.109 44.011 C 210.146 46.022,210.560 47.129,211.230 47.009 C 211.458 46.968,211.494 47.217,211.467 48.659 C 211.435 50.427,211.539 50.821,212.249 51.596 C 212.593 51.972,212.657 52.258,212.708 53.630 C 212.765 55.146,212.801 55.275,213.424 56.179 C 214.046 57.082,214.080 57.202,214.081 58.517 C 214.083 59.671,214.163 60.065,214.558 60.866 C 214.820 61.395,215.082 62.221,215.140 62.702 L 215.247 63.577 215.270 62.702 C 215.284 62.172,215.192 61.694,215.036 61.488 C 214.726 61.079,214.708 60.866,214.983 60.866 C 215.095 60.866,215.135 60.919,215.070 60.983 C 215.006 61.047,215.067 61.274,215.206 61.487 C 215.375 61.745,215.477 62.479,215.513 63.700 C 215.565 65.479,216.090 66.996,216.554 66.709 C 216.623 66.667,216.736 66.724,216.805 66.837 C 216.889 66.972,216.856 66.994,216.707 66.903 C 216.557 66.809,216.512 66.844,216.571 67.007 C 216.620 67.140,216.728 67.236,216.812 67.220 C 216.897 67.204,216.940 67.813,216.908 68.574 C 216.859 69.771,216.913 70.088,217.304 70.914 C 217.705 71.762,217.743 72.008,217.644 73.075 C 217.514 74.481,217.751 75.394,218.377 75.886 C 218.768 76.194,218.802 76.340,218.802 77.731 C 218.802 79.397,219.028 80.133,219.741 80.791 C 220.167 81.184,220.201 81.323,220.201 82.677 C 220.201 84.292,220.433 85.036,221.141 85.689 C 221.393 85.922,221.600 86.298,221.600 86.525 C 221.600 88.677,221.592 88.675,232.969 88.675 C 244.845 88.675,244.255 88.828,244.360 85.730 C 244.401 84.533,244.469 84.241,244.767 83.991 L 245.125 83.690 244.776 84.128 L 244.428 84.565 244.910 84.138 C 245.580 83.546,245.784 82.705,245.712 80.835 C 245.666 79.656,245.706 79.230,245.862 79.230 C 245.992 79.230,246.031 79.350,245.962 79.537 C 245.900 79.705,246.064 79.590,246.328 79.280 C 246.960 78.538,247.136 77.861,247.136 76.169 C 247.136 74.964,247.184 74.737,247.480 74.552 C 248.138 74.142,248.417 73.292,248.450 71.601 C 248.476 70.342,248.566 69.832,248.881 69.181 C 249.212 68.499,249.266 68.156,249.199 67.191 C 249.154 66.550,249.153 66.179,249.196 66.366 C 249.284 66.752,249.782 65.630,249.824 64.949 C 249.836 64.742,249.906 64.609,249.978 64.653 C 250.152 64.761,250.458 63.940,250.465 63.347 C 250.468 63.088,250.586 62.724,250.727 62.538 C 250.868 62.351,250.984 61.839,250.985 61.401 C 250.985 60.962,251.104 60.377,251.249 60.100 C 251.486 59.645,251.485 59.618,251.238 59.823 C 250.994 60.026,250.988 59.999,251.179 59.578 C 251.310 59.291,251.441 59.183,251.515 59.301 C 251.719 59.633,251.858 58.993,251.858 57.716 C 251.858 56.674,251.950 56.331,252.566 55.063 C 253.213 53.730,253.270 53.500,253.238 52.337 C 253.219 51.638,253.268 51.009,253.346 50.938 C 253.424 50.867,253.430 50.927,253.358 51.071 C 253.286 51.216,253.472 51.076,253.769 50.760 C 254.195 50.309,254.289 50.085,254.207 49.711 C 254.136 49.384,254.156 49.309,254.270 49.470 C 254.533 49.844,254.674 48.982,254.642 47.199 C 254.616 45.802,254.654 45.590,254.985 45.282 C 255.460 44.840,255.464 45.103,254.992 45.757 C 254.708 46.149,254.744 46.131,255.150 45.676 C 255.784 44.966,256.056 43.971,256.056 42.363 C 256.056 41.360,256.118 41.100,256.422 40.825 C 257.043 40.263,257.164 39.848,257.198 38.162 C 257.230 36.611,257.256 36.508,257.759 35.976 C 258.746 34.933,258.863 34.408,258.411 33.056 C 258.209 32.452,258.168 32.402,258.234 32.838 C 258.282 33.150,258.257 33.406,258.180 33.406 C 258.102 33.406,258.034 33.308,258.029 33.188 C 258.025 33.067,257.978 32.754,257.925 32.491 C 257.821 31.971,258.106 31.645,258.337 32.019 C 258.420 32.152,258.450 31.920,258.408 31.473 C 258.352 30.869,258.370 30.793,258.490 31.132 C 258.575 31.373,258.652 31.484,258.662 31.380 C 258.672 31.276,258.787 31.191,258.918 31.191 C 259.068 31.191,259.127 31.326,259.078 31.555 C 259.026 31.794,259.052 31.846,259.151 31.708 C 259.264 31.551,259.358 31.583,259.513 31.831 C 259.645 32.042,259.659 32.205,259.550 32.272 C 259.456 32.330,259.379 32.281,259.379 32.163 C 259.379 32.045,259.332 31.996,259.274 32.054 C 259.216 32.112,259.282 32.321,259.421 32.519 C 259.559 32.717,259.705 32.847,259.745 32.807 C 259.784 32.767,259.793 33.456,259.764 34.338 C 259.712 35.934,260.012 37.383,260.378 37.308 C 260.468 37.290,260.541 37.408,260.541 37.570 C 260.541 37.733,260.564 38.142,260.593 38.478 L 260.645 39.091 260.778 38.566 L 260.912 38.041 260.947 38.653 C 260.967 38.990,260.971 39.679,260.955 40.184 C 260.936 40.844,261.051 41.362,261.367 42.030 C 261.755 42.850,261.794 43.111,261.706 44.275 C 261.587 45.848,261.819 46.688,262.539 47.294 C 263.033 47.710,263.052 47.781,263.052 49.229 C 263.052 50.888,263.279 51.625,263.991 52.282 C 264.417 52.675,264.451 52.814,264.451 54.168 C 264.451 55.783,264.683 56.527,265.391 57.180 C 265.820 57.575,265.850 57.706,265.850 59.128 C 265.850 60.583,265.878 60.692,266.463 61.542 C 267.019 62.350,267.075 62.543,267.075 63.654 C 267.075 64.657,267.428 66.325,267.702 66.619 C 267.737 66.656,267.886 66.588,268.033 66.466 C 268.347 66.205,268.395 66.472,268.088 66.779 C 267.923 66.944,267.950 67.057,268.210 67.295 C 268.527 67.585,268.531 67.585,268.308 67.289 C 268.180 67.119,268.125 66.928,268.187 66.866 C 268.425 66.628,268.486 67.007,268.523 68.947 C 268.558 70.797,268.598 71.007,269.026 71.638 C 269.368 72.142,269.467 72.466,269.402 72.872 C 269.354 73.175,269.432 73.684,269.577 74.008 C 269.722 74.331,269.883 74.900,269.936 75.273 C 269.990 75.646,270.174 76.106,270.345 76.296 C 270.607 76.585,270.650 76.909,270.609 78.309 C 270.553 80.255,270.753 81.010,271.460 81.513 C 271.960 81.869,271.972 81.914,271.972 83.429 C 271.972 85.136,272.088 85.580,272.699 86.217 C 272.924 86.452,273.271 86.963,273.468 87.354 C 274.155 88.711,273.867 88.675,284.002 88.675 C 293.897 88.675,293.667 88.699,294.660 87.568 C 295.229 86.919,295.336 86.558,295.485 84.761 C 295.532 84.196,295.624 83.684,295.690 83.624 C 295.756 83.564,295.764 83.704,295.707 83.934 C 295.627 84.258,295.651 84.306,295.811 84.145 C 295.927 84.029,296.044 83.304,296.074 82.502 C 296.122 81.265,296.217 80.891,296.765 79.790 C 297.285 78.746,297.419 78.253,297.504 77.079 C 297.591 75.866,297.708 75.457,298.263 74.426 C 298.883 73.274,298.918 73.128,298.890 71.747 C 298.872 70.815,298.937 70.211,299.070 70.079 C 299.230 69.920,299.251 69.953,299.162 70.223 C 299.099 70.415,299.271 70.219,299.544 69.786 C 299.976 69.103,300.050 68.791,300.105 67.431 C 300.166 65.927,300.195 65.832,300.806 65.086 C 301.442 64.311,301.443 64.306,301.478 62.472 C 301.506 60.965,301.568 60.584,301.822 60.356 C 302.077 60.127,302.074 60.147,301.804 60.472 C 301.620 60.692,301.564 60.866,301.676 60.866 C 302.374 60.866,302.842 59.445,302.839 57.336 C 302.838 56.199,302.897 55.269,302.971 55.269 C 303.044 55.269,303.111 55.131,303.118 54.963 C 303.128 54.737,303.158 54.722,303.230 54.904 C 303.400 55.335,304.154 53.011,304.154 52.053 C 304.154 51.468,304.285 50.910,304.528 50.457 C 304.872 49.815,305.264 47.758,305.039 47.780 C 304.713 47.812,304.664 47.713,304.876 47.452 C 305.039 47.251,305.046 47.198,304.897 47.288 C 304.589 47.473,304.624 47.136,304.941 46.874 C 305.158 46.694,305.206 46.712,305.218 46.983 C 305.228 47.200,305.283 47.147,305.379 46.828 C 305.459 46.562,305.692 45.997,305.898 45.572 C 306.200 44.949,306.265 44.522,306.237 43.358 C 306.206 42.087,306.245 41.881,306.563 41.623 C 307.382 40.960,307.651 40.225,307.651 38.640 C 307.652 37.245,307.684 37.110,308.112 36.716 C 308.860 36.026,309.075 35.290,309.037 33.549 C 309.008 32.216,309.051 31.937,309.327 31.688 C 309.612 31.431,309.610 31.448,309.309 31.832 L 308.966 32.269 309.468 31.832 C 310.216 31.181,310.428 30.497,310.463 28.627 C 310.488 27.305,310.556 26.893,310.779 26.719 C 311.035 26.519,311.038 26.531,310.811 26.847 C 310.672 27.040,310.790 26.979,311.073 26.713 C 311.577 26.237,311.587 26.191,311.605 24.351 C 311.621 22.768,311.685 22.359,312.015 21.735 C 312.322 21.153,312.393 20.774,312.346 19.959 C 312.312 19.356,312.354 18.964,312.448 19.022 C 312.537 19.077,312.557 18.988,312.493 18.822 C 312.430 18.656,312.450 18.566,312.537 18.620 C 312.624 18.674,312.791 18.428,312.908 18.074 C 313.025 17.721,313.272 17.175,313.456 16.862 C 313.713 16.427,313.791 15.968,313.786 14.924 C 313.777 13.146,313.789 13.055,314.065 12.797 C 314.370 12.512,314.360 12.666,314.031 13.301 C 313.885 13.585,313.805 13.817,313.854 13.817 C 314.304 13.817,315.173 11.270,315.173 9.953 C 315.173 8.623,315.207 8.490,315.693 7.936 C 316.107 7.465,316.195 7.229,316.127 6.777 C 316.059 6.327,316.075 6.282,316.206 6.559 C 316.335 6.830,316.375 6.700,316.385 5.977 C 316.413 3.835,316.296 3.812,305.815 3.882 C 296.021 3.947,296.458 3.805,296.458 6.925 C 296.458 7.902,296.373 8.344,296.095 8.817 C 295.895 9.156,295.771 9.499,295.821 9.578 C 295.870 9.658,295.830 9.838,295.731 9.978 C 295.586 10.183,295.570 10.171,295.653 9.917 C 295.711 9.737,295.682 9.646,295.586 9.705 C 295.264 9.905,295.078 11.122,295.032 13.336 C 295.006 14.563,294.915 15.566,294.829 15.566 C 294.742 15.566,294.717 15.448,294.772 15.304 C 295.052 14.575,294.624 15.185,294.160 16.175 C 293.647 17.273,293.632 17.377,293.688 19.413 C 293.732 20.954,293.693 21.496,293.545 21.439 C 292.842 21.169,292.261 22.981,292.261 25.443 C 292.261 27.227,292.227 27.436,291.887 27.739 C 291.177 28.371,291.018 29.087,291.047 31.506 C 291.073 33.691,290.803 34.805,290.355 34.357 C 290.300 34.302,290.450 34.107,290.689 33.923 C 290.928 33.739,291.039 33.587,290.936 33.585 C 290.127 33.568,289.636 35.114,289.685 37.516 C 289.719 39.192,289.675 39.542,289.340 40.227 C 289.021 40.882,288.949 41.359,288.918 43.062 C 288.897 44.188,288.814 45.069,288.733 45.019 C 288.653 44.969,288.508 45.150,288.411 45.420 C 288.315 45.690,288.108 46.137,287.953 46.413 C 287.774 46.729,287.594 47.761,287.463 49.211 C 287.322 50.778,287.153 51.703,286.933 52.121 C 286.624 52.705,286.624 52.721,286.927 52.470 C 287.225 52.224,287.230 52.232,287.007 52.590 C 286.876 52.801,286.717 52.941,286.654 52.902 C 286.591 52.863,286.568 53.045,286.604 53.307 C 286.657 53.698,286.642 53.721,286.518 53.435 C 286.277 52.879,286.118 54.104,286.152 56.247 C 286.172 57.527,286.114 58.158,285.964 58.300 C 285.791 58.463,285.790 58.420,285.960 58.090 C 286.099 57.820,286.107 57.717,285.982 57.794 C 285.427 58.137,284.915 59.771,284.915 61.199 C 284.915 62.306,284.865 62.604,284.696 62.497 C 284.576 62.420,284.408 62.357,284.324 62.355 C 284.239 62.354,284.043 62.159,283.887 61.923 C 283.731 61.686,283.682 61.541,283.778 61.600 C 283.994 61.733,283.916 58.262,283.682 57.359 C 283.593 57.018,283.265 56.507,282.953 56.223 C 282.475 55.789,282.439 55.776,282.725 56.143 C 283.024 56.526,283.026 56.544,282.744 56.289 C 282.466 56.038,282.425 55.753,282.453 54.241 C 282.488 52.381,282.419 52.135,281.566 51.046 C 281.094 50.444,281.067 50.314,281.064 48.685 C 281.063 47.737,281.003 47.053,280.932 47.164 C 280.852 47.291,280.692 47.109,280.511 46.683 C 280.173 45.893,280.235 45.776,280.617 46.480 C 280.761 46.745,280.881 46.877,280.885 46.774 C 280.889 46.671,280.658 46.277,280.372 45.899 C 279.910 45.289,279.852 45.073,279.847 43.966 C 279.841 42.403,279.680 41.506,279.463 41.831 C 279.359 41.987,279.324 41.891,279.357 41.539 C 279.397 41.103,279.348 41.024,279.065 41.074 C 278.784 41.123,278.761 41.088,278.938 40.876 C 279.092 40.690,279.101 40.491,278.972 40.150 C 278.874 39.891,278.792 39.311,278.791 38.860 C 278.788 38.052,278.469 36.902,278.008 36.037 C 277.587 35.249,277.191 33.717,277.053 32.343 C 276.915 30.979,276.777 30.536,276.535 30.685 C 276.461 30.731,276.383 29.808,276.361 28.633 C 276.320 26.410,275.979 25.261,275.295 25.039 C 275.065 24.964,275.064 24.995,275.286 25.289 C 275.525 25.605,275.521 25.608,275.220 25.333 C 274.946 25.083,274.907 24.780,274.933 23.112 C 274.966 21.045,274.822 20.513,274.048 19.851 C 273.640 19.502,273.640 19.502,273.891 19.851 C 274.030 20.046,274.044 20.116,273.922 20.008 C 273.778 19.882,273.691 19.195,273.667 17.997 C 273.634 16.294,273.223 14.606,272.918 14.912 C 272.863 14.967,272.916 15.195,273.036 15.420 C 273.234 15.792,273.227 15.807,272.963 15.589 C 272.803 15.457,272.672 15.235,272.672 15.097 C 272.672 14.955,272.586 14.899,272.474 14.968 C 272.353 15.043,272.311 14.996,272.365 14.847 C 272.413 14.714,272.555 14.628,272.679 14.658 C 272.864 14.702,272.864 14.662,272.680 14.439 C 272.409 14.113,272.251 14.079,272.427 14.386 C 272.496 14.506,272.490 14.547,272.413 14.478 C 272.336 14.409,272.289 13.632,272.309 12.753 C 272.344 11.134,271.625 8.875,271.261 9.464 C 271.037 9.825,270.906 9.008,270.870 7.024 C 270.809 3.689,271.334 3.845,260.215 3.858 C 249.573 3.870,249.665 3.850,249.448 6.152 C 249.388 6.794,249.227 7.244,248.931 7.598 C 248.307 8.346,248.207 8.719,248.172 10.446 C 248.145 11.801,248.088 12.058,247.726 12.480 C 247.498 12.745,247.311 12.905,247.311 12.835 C 247.311 12.765,247.441 12.564,247.600 12.388 C 247.760 12.212,247.806 12.068,247.703 12.068 C 247.262 12.068,246.786 13.559,246.786 14.940 C 246.786 16.202,246.752 16.330,246.328 16.664 C 245.649 17.197,245.387 18.005,245.387 19.563 C 245.387 20.859,245.358 20.967,244.935 21.244 C 244.262 21.685,243.988 22.532,243.988 24.175 C 243.988 25.199,243.885 25.892,243.638 26.543 C 243.431 27.086,243.288 27.887,243.288 28.497 C 243.288 29.337,243.171 29.762,242.659 30.769 C 242.059 31.950,242.032 32.077,242.091 33.496 C 242.136 34.614,242.099 34.964,241.938 34.902 C 241.821 34.858,241.671 34.908,241.605 35.015 C 241.528 35.140,241.566 35.160,241.710 35.070 C 241.860 34.977,241.905 35.012,241.846 35.175 C 241.797 35.308,241.666 35.397,241.554 35.371 C 241.179 35.287,240.673 36.749,240.668 37.928 C 240.665 38.894,240.596 39.126,240.145 39.696 C 239.389 40.651,239.241 41.182,239.281 42.811 C 239.315 44.249,239.177 44.687,238.688 44.687 C 238.238 44.687,237.867 45.877,237.866 47.324 C 237.866 48.625,237.830 48.770,237.406 49.161 C 236.711 49.802,236.467 50.561,236.467 52.085 C 236.467 53.320,236.423 53.500,236.035 53.865 C 235.411 54.451,235.189 55.281,235.331 56.502 C 235.432 57.374,235.392 57.659,235.085 58.248 C 234.650 59.083,234.613 59.314,234.990 58.844 C 235.253 58.516,235.256 58.518,235.077 58.887 C 234.976 59.097,234.885 59.451,234.875 59.674 C 234.858 60.074,234.856 60.074,234.720 59.641 C 234.636 59.377,234.591 59.946,234.606 61.085 C 234.619 62.119,234.567 62.965,234.489 62.965 C 234.411 62.965,234.396 63.043,234.456 63.139 C 234.515 63.236,234.495 63.314,234.411 63.314 C 234.327 63.314,234.277 62.822,234.300 62.221 L 234.341 61.128 234.200 62.090 C 233.853 64.474,233.513 65.147,233.473 63.533 C 233.454 62.791,233.438 62.759,233.319 63.227 C 233.188 63.740,233.050 63.424,233.136 62.810 C 233.157 62.658,233.070 62.606,232.900 62.671 C 232.752 62.728,232.584 62.699,232.527 62.607 C 232.470 62.515,232.508 62.440,232.612 62.440 C 232.722 62.440,232.765 62.241,232.714 61.962 C 232.667 61.699,232.709 61.182,232.809 60.812 C 232.938 60.333,232.934 60.072,232.796 59.906 C 232.666 59.750,232.661 59.636,232.780 59.562 C 233.016 59.417,233.206 60.206,233.061 60.722 C 232.972 61.037,232.987 61.069,233.130 60.866 C 233.387 60.498,233.361 59.989,233.055 59.403 C 232.912 59.127,232.794 58.654,232.794 58.351 C 232.794 58.048,232.637 57.506,232.444 57.147 C 232.252 56.788,232.093 56.317,232.092 56.100 C 232.090 55.782,232.057 55.756,231.920 55.969 C 231.822 56.119,231.749 56.144,231.747 56.027 C 231.746 55.914,231.698 55.678,231.641 55.502 C 231.552 55.228,231.567 55.220,231.745 55.444 C 231.922 55.668,231.937 55.659,231.849 55.386 C 231.791 55.210,231.745 55.028,231.745 54.982 C 231.745 54.936,231.684 54.936,231.611 54.981 C 231.537 55.027,231.506 54.489,231.542 53.787 C 231.607 52.490,231.184 50.440,230.889 50.623 C 230.810 50.671,230.783 50.516,230.829 50.278 C 230.874 50.040,230.821 49.488,230.711 49.051 C 230.559 48.447,230.561 48.089,230.720 47.558 C 230.990 46.657,230.574 45.213,229.865 44.588 L 229.383 44.163 229.777 44.611 C 230.232 45.129,230.269 45.300,229.927 45.300 C 229.526 45.300,229.442 44.799,229.448 42.414 C 229.452 40.554,229.221 38.637,229.121 39.703 C 229.104 39.885,229.051 39.859,228.946 39.615 C 228.740 39.134,228.740 38.858,228.946 39.178 C 229.039 39.322,229.117 39.359,229.118 39.259 C 229.120 39.159,228.905 38.840,228.640 38.550 C 228.376 38.259,228.246 38.144,228.351 38.294 C 228.750 38.859,228.760 38.965,228.419 39.054 C 228.228 39.104,228.115 39.074,228.169 38.987 C 228.223 38.900,228.204 38.828,228.126 38.828 C 228.048 38.829,228.010 37.769,228.041 36.474 L 228.097 34.120 227.457 32.976 C 226.887 31.958,226.366 31.282,226.855 32.197 C 226.963 32.398,227.005 32.607,226.949 32.663 C 226.893 32.719,226.847 32.668,226.847 32.551 C 226.847 32.433,226.788 32.373,226.716 32.418 C 226.644 32.462,226.607 31.463,226.633 30.198 C 226.670 28.416,226.623 27.798,226.423 27.460 C 226.281 27.219,226.035 26.728,225.876 26.368 C 225.716 26.007,225.535 25.744,225.473 25.783 C 225.411 25.821,225.387 25.051,225.419 24.070 C 225.472 22.455,225.435 22.195,225.026 21.299 C 224.777 20.756,224.572 20.208,224.571 20.081 C 224.569 19.896,224.540 19.897,224.419 20.087 C 224.310 20.259,224.216 20.169,224.072 19.755 C 223.814 19.016,223.830 18.875,224.113 19.385 C 224.677 20.401,224.260 16.425,223.658 15.042 C 223.148 13.868,222.821 12.495,222.671 10.891 C 222.581 9.925,222.406 9.103,222.235 8.843 C 222.078 8.603,221.942 8.110,221.933 7.746 C 221.917 7.157,221.900 7.132,221.775 7.521 L 221.635 7.958 221.618 7.492 C 221.608 7.235,221.508 6.994,221.395 6.957 C 221.283 6.919,221.178 6.717,221.163 6.508 C 221.142 6.225,221.190 6.173,221.350 6.306 C 221.474 6.409,221.410 6.063,221.200 5.493 C 220.574 3.793,220.966 3.853,210.582 3.867 C 205.724 3.874,201.498 3.952,201.191 4.041 M326.239 4.104 C 324.834 4.722,324.962 0.324,325.011 46.477 L 325.055 87.444 325.626 88.016 L 326.198 88.588 334.409 88.636 C 343.621 88.691,343.650 88.688,344.125 87.550 C 344.346 87.021,344.381 83.293,344.381 60.320 C 344.381 34.544,344.391 33.711,344.701 33.991 C 344.877 34.150,345.089 34.281,345.171 34.281 C 345.254 34.281,345.144 34.115,344.927 33.913 C 344.710 33.711,344.571 33.445,344.618 33.323 C 344.668 33.193,344.581 33.109,344.411 33.122 C 344.233 33.135,344.097 32.991,344.063 32.750 C 344.032 32.534,343.908 32.357,343.786 32.357 C 343.650 32.357,343.565 32.122,343.565 31.747 C 343.565 31.177,343.581 31.160,343.808 31.485 C 343.942 31.676,344.174 31.832,344.324 31.832 C 344.505 31.832,344.568 31.943,344.511 32.160 C 344.445 32.412,344.501 32.468,344.753 32.402 C 345.013 32.334,345.081 32.413,345.081 32.784 C 345.081 33.110,345.147 33.213,345.300 33.124 C 345.420 33.054,345.381 33.153,345.214 33.344 C 344.982 33.609,344.959 33.739,345.116 33.896 C 345.229 34.009,345.347 34.274,345.380 34.485 C 345.458 34.997,346.258 36.030,346.576 36.030 C 346.750 36.030,346.830 36.225,346.830 36.648 C 346.830 37.491,347.241 38.406,347.733 38.662 C 347.958 38.778,348.311 39.079,348.518 39.330 C 348.725 39.582,349.000 39.788,349.130 39.789 C 349.260 39.790,349.372 39.829,349.380 39.878 C 349.388 39.926,349.492 40.162,349.611 40.402 L 349.827 40.840 349.463 40.402 L 349.099 39.965 349.423 40.752 C 349.616 41.222,349.981 41.699,350.329 41.935 C 350.989 42.384,351.552 43.213,351.552 43.735 C 351.552 44.415,352.048 45.276,352.607 45.565 C 352.914 45.723,353.112 45.768,353.048 45.664 C 352.874 45.382,353.026 45.434,353.449 45.801 C 353.901 46.192,353.937 46.380,353.531 46.225 C 353.312 46.141,353.351 46.266,353.684 46.711 C 353.931 47.041,354.188 47.621,354.256 48.000 C 354.340 48.473,354.607 48.921,355.108 49.429 C 356.296 50.633,356.974 51.548,356.974 51.946 C 356.974 52.495,357.282 52.995,358.118 53.807 C 358.529 54.206,359.019 54.875,359.208 55.294 C 359.396 55.713,359.856 56.379,360.230 56.773 C 360.960 57.543,361.698 58.834,361.697 59.341 C 361.696 60.233,362.862 61.597,363.483 61.429 C 363.552 61.410,363.566 61.503,363.515 61.636 C 363.464 61.769,363.652 62.141,363.932 62.465 C 364.228 62.805,364.487 63.346,364.548 63.752 C 364.627 64.272,364.830 64.608,365.343 65.063 C 365.722 65.400,366.231 66.073,366.473 66.558 C 366.715 67.043,367.274 67.842,367.715 68.333 C 368.157 68.823,368.518 69.301,368.518 69.394 C 368.518 69.487,368.670 69.758,368.857 69.995 C 369.043 70.232,369.248 70.636,369.313 70.893 C 369.377 71.150,369.853 71.803,370.369 72.345 C 370.885 72.886,371.358 73.496,371.420 73.700 C 371.483 73.904,371.594 74.150,371.668 74.246 C 371.741 74.342,371.857 74.759,371.925 75.172 C 372.021 75.751,372.244 76.119,372.897 76.772 C 373.363 77.238,373.871 77.923,374.025 78.294 C 374.179 78.665,374.655 79.324,375.082 79.758 C 375.510 80.195,376.163 81.173,376.540 81.944 C 376.926 82.734,377.532 83.638,377.934 84.024 C 378.326 84.401,378.698 84.942,378.761 85.228 C 378.824 85.518,378.928 85.663,378.994 85.555 C 379.063 85.444,379.201 85.601,379.320 85.925 C 379.506 86.435,379.502 86.457,379.269 86.149 C 378.905 85.669,378.949 85.901,379.424 86.965 C 380.206 88.716,379.402 88.580,389.305 88.640 C 398.698 88.697,398.959 88.682,399.582 88.059 L 400.000 87.642 400.000 46.300 L 400.000 4.958 399.606 4.590 C 398.848 3.879,398.483 3.848,390.850 3.849 C 383.387 3.850,382.501 3.915,381.864 4.508 C 381.686 4.674,381.617 4.751,381.710 4.679 C 381.985 4.466,382.157 4.528,382.052 4.801 C 381.998 4.941,382.003 5.135,382.063 5.232 C 382.143 5.361,382.227 56.486,382.148 57.018 C 382.141 57.066,382.068 56.948,381.985 56.756 C 381.866 56.477,381.832 56.544,381.823 57.080 C 381.814 57.570,381.746 57.730,381.575 57.665 C 381.409 57.601,381.363 57.692,381.417 57.975 C 381.459 58.196,381.395 58.437,381.275 58.511 C 381.151 58.588,381.101 58.575,381.159 58.480 C 381.326 58.210,380.670 56.939,380.206 56.635 C 379.966 56.477,379.683 56.037,379.562 55.636 C 379.444 55.240,379.158 54.794,378.926 54.642 C 378.694 54.490,378.418 54.103,378.312 53.782 C 378.206 53.461,377.990 53.093,377.832 52.965 C 377.626 52.798,377.582 52.794,377.677 52.951 C 377.749 53.072,377.725 53.170,377.623 53.170 C 377.521 53.170,377.436 53.072,377.435 52.951 C 377.433 52.781,377.401 52.782,377.290 52.956 C 377.187 53.119,377.094 53.061,376.950 52.744 C 376.823 52.465,376.813 52.270,376.922 52.202 C 377.017 52.144,377.038 52.004,376.970 51.890 C 376.902 51.776,376.994 51.801,377.175 51.946 C 377.620 52.300,377.427 51.956,376.612 50.940 C 376.082 50.280,375.469 49.875,375.793 50.399 C 375.871 50.525,375.841 50.553,375.713 50.474 C 375.600 50.404,375.553 50.275,375.608 50.186 C 375.663 50.097,375.619 49.886,375.510 49.717 C 375.334 49.444,375.323 49.443,375.404 49.707 C 375.464 49.900,375.418 49.974,375.272 49.918 C 375.148 49.871,375.039 49.737,375.028 49.621 C 374.898 48.211,374.811 47.884,374.446 47.423 C 374.216 47.131,373.930 46.925,373.811 46.964 C 373.691 47.004,373.612 46.980,373.635 46.911 C 373.657 46.842,373.484 46.477,373.249 46.099 C 373.015 45.722,372.793 45.505,372.755 45.618 C 372.717 45.732,372.609 45.824,372.516 45.824 C 372.422 45.824,372.394 45.746,372.453 45.649 C 372.512 45.553,372.483 45.474,372.387 45.474 C 372.292 45.474,372.249 45.278,372.293 45.039 C 372.402 44.437,371.961 43.462,371.418 43.107 C 371.170 42.944,370.966 42.736,370.966 42.645 C 370.966 42.372,370.063 40.548,369.972 40.638 C 369.926 40.684,369.975 40.884,370.082 41.083 C 370.239 41.376,370.227 41.426,370.023 41.347 C 369.855 41.283,369.794 41.068,369.839 40.708 C 369.906 40.181,368.217 38.138,367.942 38.413 C 367.891 38.463,367.798 38.340,367.734 38.139 C 367.670 37.938,367.556 37.812,367.480 37.859 C 367.405 37.906,367.368 37.730,367.399 37.468 C 367.518 36.472,366.609 35.098,365.807 35.060 C 365.711 35.056,365.652 34.955,365.677 34.837 C 365.724 34.612,365.077 33.231,364.924 33.231 C 364.876 33.231,364.956 33.464,365.103 33.747 C 365.249 34.031,365.369 34.310,365.369 34.366 C 365.369 34.540,364.904 34.046,364.884 33.851 C 364.723 32.306,364.400 31.587,363.780 31.390 C 363.596 31.332,363.446 31.167,363.446 31.025 C 363.446 30.569,362.916 29.716,362.711 29.842 C 362.592 29.916,362.566 29.883,362.644 29.757 C 362.715 29.642,362.573 29.316,362.321 29.017 C 362.074 28.723,361.871 28.376,361.871 28.246 C 361.871 28.116,361.607 27.788,361.284 27.516 C 360.961 27.244,360.640 26.786,360.570 26.498 C 360.501 26.210,360.116 25.569,359.715 25.075 C 359.314 24.581,358.886 24.030,358.763 23.850 C 358.567 23.562,358.563 23.570,358.726 23.918 C 358.874 24.235,358.858 24.311,358.644 24.311 C 357.947 24.311,357.348 23.134,357.878 22.806 C 358.021 22.718,358.045 22.780,357.957 23.009 C 357.887 23.190,357.886 23.283,357.955 23.214 C 358.023 23.146,358.184 23.177,358.313 23.284 C 358.442 23.391,358.344 23.115,358.095 22.671 C 357.668 21.905,357.284 21.484,357.668 22.201 C 357.896 22.628,357.895 22.737,357.663 22.737 C 357.562 22.737,357.527 22.659,357.586 22.562 C 357.646 22.466,357.616 22.387,357.519 22.387 C 357.423 22.387,357.377 22.217,357.417 22.009 C 357.528 21.435,356.885 20.145,356.372 19.912 C 356.067 19.772,355.921 19.564,355.912 19.255 C 355.901 18.845,355.886 18.835,355.750 19.152 C 355.605 19.489,355.599 19.488,355.587 19.118 C 355.581 18.908,355.495 18.686,355.397 18.625 C 355.299 18.565,355.270 18.434,355.332 18.334 C 355.404 18.217,355.497 18.237,355.594 18.390 C 355.699 18.556,355.745 18.563,355.747 18.414 C 355.749 18.297,355.396 17.803,354.963 17.315 C 354.530 16.828,354.176 16.351,354.176 16.256 C 354.176 16.161,353.979 15.994,353.739 15.884 C 353.498 15.775,353.301 15.576,353.301 15.444 C 353.301 14.998,352.611 13.844,352.281 13.739 C 352.096 13.680,351.868 13.344,351.753 12.960 C 351.642 12.589,351.418 12.177,351.256 12.045 C 351.054 11.882,351.002 11.875,351.092 12.024 C 351.173 12.160,351.125 12.243,350.965 12.243 C 350.468 12.243,350.153 12.028,350.153 11.689 C 350.153 11.502,350.232 11.396,350.327 11.456 C 350.440 11.526,350.438 11.397,350.322 11.090 C 350.164 10.675,350.175 10.644,350.410 10.839 C 350.979 11.311,350.636 10.795,349.716 9.794 C 349.187 9.219,348.754 8.664,348.754 8.561 C 348.754 8.459,348.681 8.420,348.591 8.475 C 348.501 8.531,348.371 8.484,348.302 8.371 C 348.223 8.243,348.251 8.213,348.377 8.291 C 348.913 8.623,348.309 7.044,347.613 6.296 C 347.300 5.960,346.917 5.433,346.763 5.127 C 346.609 4.820,346.384 4.514,346.263 4.445 C 346.087 4.346,346.086 4.368,346.261 4.557 C 346.554 4.872,346.537 5.072,346.218 5.072 C 346.073 5.072,345.955 4.949,345.955 4.799 C 345.955 4.650,345.877 4.575,345.780 4.635 C 345.684 4.694,345.606 4.665,345.606 4.571 C 345.606 4.476,345.507 4.365,345.387 4.323 C 345.267 4.282,345.365 4.278,345.606 4.313 C 346.021 4.374,346.025 4.366,345.693 4.156 C 345.144 3.809,327.019 3.761,326.239 4.104 M350.738 11.481 C 350.754 11.668,350.667 11.785,350.534 11.758 C 350.401 11.730,350.354 11.794,350.423 11.906 C 350.508 12.042,350.628 12.018,350.822 11.824 C 351.026 11.620,351.048 11.494,350.905 11.351 C 350.762 11.208,350.718 11.243,350.738 11.481 M351.550 12.812 C 351.551 12.884,351.469 12.943,351.367 12.943 C 351.265 12.943,351.230 12.864,351.290 12.768 C 351.349 12.672,351.310 12.593,351.202 12.593 C 351.095 12.593,351.061 12.506,351.127 12.399 C 351.244 12.209,351.543 12.501,351.550 12.812 M222.993 13.511 C 222.997 13.583,222.916 13.642,222.814 13.642 C 222.712 13.642,222.678 13.564,222.737 13.467 C 222.797 13.371,222.779 13.293,222.697 13.293 C 222.616 13.293,222.537 13.115,222.523 12.899 C 222.497 12.516,222.502 12.517,222.741 12.943 C 222.877 13.183,222.990 13.439,222.993 13.511 M145.432 16.767 C 145.818 16.942,146.417 17.139,146.764 17.204 C 147.110 17.269,147.542 17.486,147.724 17.686 C 148.266 18.286,148.941 18.539,150.013 18.546 C 150.647 18.549,151.290 18.678,151.727 18.889 C 152.156 19.097,152.807 19.230,153.410 19.233 C 154.524 19.240,155.722 19.698,156.587 20.448 C 157.211 20.989,158.871 21.863,159.274 21.863 C 159.770 21.863,161.351 22.633,162.034 23.208 C 162.412 23.526,162.817 23.787,162.933 23.787 C 163.050 23.787,163.526 24.101,163.991 24.486 C 164.457 24.870,165.112 25.236,165.447 25.299 C 166.593 25.514,167.643 26.114,168.780 27.202 C 169.405 27.801,170.192 28.426,170.529 28.592 C 171.423 29.033,175.714 33.347,176.149 34.243 C 176.406 34.773,176.724 35.098,177.237 35.356 C 178.238 35.859,178.535 36.153,178.916 37.013 C 179.148 37.537,179.443 37.858,179.918 38.100 C 180.479 38.386,180.629 38.582,180.813 39.273 C 180.983 39.908,181.316 40.393,182.232 41.345 C 182.891 42.029,183.487 42.775,183.557 43.003 C 183.627 43.232,184.246 44.019,184.933 44.752 C 186.185 46.089,186.669 46.856,186.878 47.836 C 186.939 48.124,187.252 48.911,187.572 49.585 C 187.892 50.258,188.207 51.106,188.270 51.469 C 188.334 51.831,188.623 52.397,188.911 52.726 C 189.745 53.675,190.944 56.268,191.036 57.318 C 191.099 58.041,191.247 58.390,191.753 59.009 C 192.104 59.437,192.392 59.959,192.392 60.169 C 192.392 60.379,192.496 60.799,192.624 61.102 C 193.234 62.554,193.492 63.511,193.604 64.738 C 193.674 65.508,193.851 66.266,194.021 66.525 C 194.216 66.822,194.316 67.336,194.316 68.036 C 194.316 69.259,194.593 70.039,195.248 70.660 C 195.689 71.078,195.709 71.179,195.712 72.937 C 195.714 74.438,195.779 74.896,196.065 75.428 C 196.610 76.446,196.611 97.264,196.065 98.159 C 195.775 98.636,195.716 99.042,195.716 100.582 C 195.715 102.354,195.696 102.449,195.255 102.855 C 194.605 103.455,194.316 104.246,194.316 105.423 C 194.316 106.096,194.197 106.674,193.966 107.127 C 193.738 107.574,193.616 108.159,193.616 108.802 C 193.616 109.346,193.470 110.176,193.292 110.646 C 192.641 112.358,192.521 112.735,192.439 113.336 C 192.392 113.679,192.161 114.134,191.914 114.369 C 191.672 114.601,191.320 115.113,191.132 115.506 C 190.945 115.900,190.680 116.419,190.545 116.659 C 190.409 116.900,190.297 117.427,190.296 117.831 C 190.293 118.575,189.709 119.903,189.081 120.592 C 188.640 121.076,188.194 121.991,188.194 122.413 C 188.194 122.817,187.453 124.273,186.984 124.789 C 186.548 125.269,186.270 125.837,186.270 126.247 C 186.270 126.438,186.120 126.627,185.929 126.677 C 185.516 126.785,184.873 127.792,184.872 128.331 C 184.871 128.545,184.557 129.135,184.172 129.642 C 183.788 130.149,183.473 130.636,183.473 130.725 C 183.472 130.813,182.959 131.417,182.332 132.067 C 181.234 133.204,180.673 134.131,180.673 134.810 C 180.673 135.019,180.421 135.243,179.955 135.449 C 179.410 135.689,179.157 135.943,178.912 136.499 C 178.537 137.346,178.234 137.645,177.258 138.135 C 176.769 138.381,176.438 138.722,176.173 139.252 C 175.542 140.516,172.519 143.344,171.656 143.478 C 170.898 143.595,170.405 144.017,169.933 144.950 C 169.775 145.262,169.522 145.518,169.370 145.518 C 169.012 145.518,167.906 146.626,167.906 146.984 C 167.906 147.311,166.528 148.042,165.592 148.212 C 165.234 148.278,164.590 148.598,164.163 148.924 C 163.735 149.251,163.157 149.636,162.878 149.780 C 162.599 149.924,162.258 150.178,162.121 150.344 C 161.841 150.682,159.914 151.639,159.514 151.640 C 159.371 151.640,158.860 151.793,158.377 151.980 C 157.894 152.168,157.284 152.366,157.021 152.420 C 156.758 152.475,156.286 152.744,155.972 153.018 C 155.145 153.739,154.022 154.263,153.303 154.263 C 152.959 154.263,152.385 154.395,152.028 154.557 C 151.646 154.729,150.682 154.893,149.694 154.953 C 148.085 155.052,147.973 155.086,147.173 155.709 C 146.712 156.068,146.171 156.365,145.970 156.368 C 145.770 156.371,145.291 156.526,144.906 156.712 C 143.812 157.240,128.344 157.237,127.178 156.708 C 126.759 156.518,126.280 156.362,126.114 156.362 C 125.948 156.362,125.440 156.072,124.985 155.718 C 124.202 155.108,124.078 155.070,122.639 155.006 C 121.674 154.964,120.820 154.816,120.300 154.601 C 119.849 154.415,119.197 154.263,118.850 154.263 C 118.128 154.263,117.164 153.813,116.024 152.943 C 115.589 152.611,115.062 152.338,114.853 152.335 C 114.644 152.333,114.130 152.176,113.711 151.986 C 113.291 151.795,112.797 151.640,112.613 151.640 C 112.179 151.640,110.326 150.706,110.014 150.329 C 109.882 150.170,109.454 149.878,109.063 149.679 C 108.672 149.481,108.097 149.097,107.787 148.826 C 107.476 148.555,106.925 148.280,106.563 148.214 C 105.425 148.007,104.425 147.394,104.006 146.646 C 103.767 146.219,103.369 145.837,102.962 145.645 C 102.571 145.460,102.233 145.143,102.125 144.858 C 101.831 144.081,101.254 143.596,100.491 143.481 C 99.724 143.366,96.530 140.372,95.756 139.042 C 95.562 138.709,95.168 138.328,94.881 138.195 C 94.293 137.922,93.397 137.140,93.397 136.899 C 93.397 136.533,92.621 135.691,91.984 135.366 C 91.473 135.106,91.299 134.910,91.299 134.595 C 91.299 133.855,91.002 133.348,89.899 132.204 C 89.307 131.591,88.680 130.813,88.505 130.477 C 88.330 130.140,87.982 129.644,87.731 129.374 C 87.481 129.105,87.276 128.729,87.276 128.538 C 87.276 127.907,86.776 126.982,86.323 126.776 C 86.078 126.664,85.877 126.455,85.877 126.312 C 85.877 125.899,84.836 123.788,84.395 123.306 C 84.175 123.065,83.943 122.575,83.879 122.217 C 83.816 121.858,83.509 121.228,83.198 120.817 C 82.207 119.509,81.854 118.773,81.854 118.016 C 81.854 117.619,81.704 116.975,81.522 116.583 C 81.339 116.192,81.138 115.572,81.075 115.206 C 81.006 114.808,80.717 114.271,80.357 113.873 C 79.874 113.338,79.755 113.062,79.755 112.479 C 79.755 111.576,79.417 110.756,78.816 110.201 C 78.389 109.808,78.355 109.669,78.350 108.277 C 78.346 107.308,78.255 106.623,78.094 106.340 C 77.939 106.070,77.841 105.394,77.837 104.569 C 77.830 103.067,77.535 102.173,76.874 101.653 C 76.450 101.319,76.432 101.229,76.432 99.404 C 76.432 97.837,76.371 97.388,76.082 96.850 C 75.538 95.834,75.538 77.762,76.082 76.694 C 76.370 76.129,76.432 75.663,76.432 74.046 C 76.432 72.268,76.463 72.073,76.766 71.977 C 77.413 71.772,77.831 70.474,77.831 68.671 C 77.831 67.553,77.915 66.867,78.092 66.526 C 78.240 66.244,78.354 65.564,78.355 64.969 C 78.356 64.260,78.471 63.688,78.706 63.227 C 78.898 62.850,79.056 62.377,79.056 62.178 C 79.056 61.978,79.213 61.505,79.405 61.128 C 79.598 60.751,79.755 60.293,79.755 60.111 C 79.755 59.928,79.962 59.534,80.214 59.234 C 80.920 58.395,81.854 56.291,81.854 55.540 C 81.854 54.828,82.351 53.772,83.112 52.867 C 83.373 52.556,83.678 51.966,83.788 51.555 C 84.140 50.249,84.532 49.428,85.131 48.747 C 85.451 48.382,85.760 47.848,85.818 47.560 C 85.876 47.272,86.074 46.955,86.259 46.856 C 86.723 46.608,87.274 45.656,87.275 45.102 C 87.276 44.850,87.399 44.541,87.548 44.417 C 87.698 44.292,88.027 43.830,88.278 43.390 C 88.530 42.949,89.232 42.067,89.839 41.429 C 90.950 40.260,91.299 39.664,91.299 38.932 C 91.299 38.636,91.501 38.429,92.083 38.130 C 92.655 37.836,92.966 37.522,93.235 36.966 C 93.610 36.192,93.985 35.828,94.960 35.292 C 95.260 35.126,95.642 34.733,95.808 34.417 C 96.283 33.511,100.728 29.057,101.618 28.596 C 102.051 28.371,102.838 27.741,103.367 27.196 C 104.332 26.200,105.530 25.519,106.701 25.299 C 107.038 25.236,107.584 24.937,107.914 24.636 C 108.244 24.334,108.754 23.985,109.045 23.860 C 109.337 23.735,109.781 23.438,110.032 23.201 C 110.562 22.699,111.711 22.115,112.513 21.939 C 113.300 21.767,114.986 20.928,115.625 20.390 C 115.920 20.142,116.333 19.937,116.542 19.935 C 116.751 19.933,117.265 19.775,117.684 19.585 C 118.104 19.395,118.705 19.239,119.021 19.239 C 119.336 19.239,119.938 19.083,120.357 18.893 C 120.796 18.694,121.504 18.546,122.026 18.543 C 123.138 18.539,123.709 18.332,124.476 17.659 C 124.801 17.374,125.252 17.140,125.479 17.140 C 125.706 17.140,126.234 16.985,126.653 16.794 C 127.786 16.280,144.308 16.256,145.432 16.767 M246.609 16.970 C 246.504 17.165,246.344 17.279,246.253 17.222 C 246.161 17.166,246.087 17.216,246.087 17.334 C 246.087 17.452,246.035 17.496,245.971 17.433 C 245.841 17.303,246.407 16.616,246.645 16.616 C 246.729 16.616,246.713 16.775,246.609 16.970 M355.367 18.003 C 355.506 18.419,354.830 18.109,354.674 17.685 C 354.526 17.287,354.536 17.280,354.907 17.526 C 355.119 17.667,355.327 17.882,355.367 18.003 M293.464 21.926 C 293.340 22.036,293.133 22.243,293.003 22.387 C 292.847 22.562,292.861 22.458,293.047 22.076 C 293.200 21.760,293.407 21.552,293.508 21.614 C 293.629 21.689,293.614 21.794,293.464 21.926 M311.500 25.152 C 311.500 25.519,311.377 25.971,311.228 26.158 C 310.965 26.486,310.962 26.485,311.140 26.116 C 311.242 25.905,311.325 25.453,311.325 25.110 C 311.325 24.767,311.364 24.486,311.412 24.486 C 311.460 24.486,311.500 24.786,311.500 25.152 M244.286 25.577 C 244.245 25.795,244.209 25.658,244.207 25.273 C 244.205 24.889,244.239 24.710,244.283 24.878 C 244.327 25.045,244.328 25.360,244.286 25.577 M291.962 28.154 C 291.800 28.343,291.632 28.463,291.589 28.421 C 291.485 28.316,291.913 27.809,292.105 27.809 C 292.189 27.809,292.124 27.964,291.962 28.154 M258.667 28.465 C 258.638 29.184,258.391 29.493,258.286 28.942 C 258.232 28.657,258.224 28.364,258.269 28.291 C 258.421 28.045,258.680 28.158,258.667 28.465 M277.207 34.324 C 277.214 34.397,277.158 34.456,277.082 34.456 C 277.007 34.456,276.934 34.239,276.919 33.975 C 276.894 33.528,277.163 33.854,277.207 34.324 M278.662 39.003 C 278.706 39.628,278.801 40.278,278.874 40.446 C 278.956 40.638,278.929 40.752,278.802 40.752 C 278.689 40.752,278.643 40.679,278.698 40.589 C 278.754 40.500,278.718 40.376,278.618 40.315 C 278.519 40.253,278.483 40.130,278.538 40.040 C 278.594 39.951,278.575 39.877,278.497 39.877 C 278.420 39.877,278.356 39.370,278.356 38.749 C 278.356 37.328,278.555 37.494,278.662 39.003 M349.104 39.217 C 349.104 39.303,349.177 39.328,349.266 39.273 C 349.356 39.218,349.486 39.264,349.556 39.377 C 349.632 39.500,349.607 39.535,349.493 39.464 C 349.388 39.400,349.251 39.431,349.188 39.533 C 349.108 39.663,348.997 39.657,348.826 39.515 C 348.505 39.249,348.512 39.061,348.841 39.061 C 348.986 39.061,349.104 39.132,349.104 39.217 M240.694 39.930 C 240.583 40.063,240.545 40.224,240.608 40.287 C 240.671 40.350,240.631 40.402,240.519 40.402 C 240.407 40.402,240.315 40.319,240.315 40.217 C 240.315 40.115,240.235 40.081,240.137 40.142 C 240.039 40.202,240.005 40.325,240.060 40.414 C 240.115 40.504,240.077 40.577,239.975 40.577 C 239.708 40.577,239.743 40.452,240.174 39.869 C 240.420 39.536,240.618 39.411,240.726 39.519 C 240.834 39.627,240.823 39.774,240.694 39.930 M287.665 50.762 C 287.626 51.076,287.593 50.861,287.592 50.284 C 287.591 49.707,287.623 49.450,287.663 49.713 C 287.703 49.975,287.704 50.448,287.665 50.762 M254.132 49.983 C 254.132 50.254,253.580 50.900,253.428 50.806 C 253.200 50.665,253.428 50.197,253.724 50.197 C 253.864 50.197,253.929 50.118,253.870 50.022 C 253.810 49.926,253.845 49.847,253.947 49.847 C 254.049 49.847,254.132 49.908,254.132 49.983 M283.504 57.357 C 283.498 57.522,283.429 57.469,283.331 57.225 C 283.242 57.003,283.089 56.870,282.992 56.930 C 282.791 57.054,282.751 56.791,282.942 56.600 C 283.104 56.439,283.519 56.998,283.504 57.357 M381.823 58.141 C 381.814 58.198,381.921 58.517,382.060 58.852 C 382.304 59.436,382.111 59.670,381.769 59.204 C 381.618 58.998,381.588 57.786,381.737 57.936 C 381.793 57.992,381.832 58.084,381.823 58.141 M285.714 58.867 C 285.563 59.018,285.439 59.228,285.439 59.333 C 285.439 59.439,285.394 59.479,285.338 59.423 C 285.196 59.282,285.586 58.592,285.808 58.592 C 285.908 58.592,285.865 58.716,285.714 58.867 M250.806 61.434 C 250.804 61.979,250.758 62.107,250.634 61.915 C 250.411 61.570,250.411 60.691,250.634 60.691 C 250.730 60.691,250.808 61.025,250.806 61.434 M233.843 64.801 C 233.843 64.945,233.765 65.063,233.669 65.063 C 233.572 65.063,233.494 64.945,233.494 64.801 C 233.494 64.657,233.572 64.539,233.669 64.539 C 233.765 64.539,233.843 64.657,233.843 64.801 M248.010 73.558 C 248.010 73.815,247.639 74.304,247.364 74.410 C 247.122 74.502,247.140 74.439,247.448 74.111 C 247.663 73.882,247.786 73.642,247.721 73.577 C 247.656 73.512,247.694 73.459,247.806 73.459 C 247.919 73.459,248.010 73.503,248.010 73.558 M218.439 75.426 C 218.672 75.691,218.813 75.907,218.752 75.907 C 218.582 75.907,217.927 75.164,217.927 74.971 C 217.927 74.877,217.947 74.832,217.971 74.872 C 217.995 74.913,218.206 75.162,218.439 75.426 M246.611 78.695 C 246.611 78.774,246.474 78.943,246.305 79.072 C 246.137 79.201,246.057 79.237,246.129 79.153 C 246.200 79.069,246.184 78.911,246.094 78.802 C 245.982 78.667,246.038 78.596,246.270 78.578 C 246.458 78.564,246.611 78.617,246.611 78.695 M296.983 79.022 C 296.983 79.100,296.861 79.316,296.711 79.503 C 296.447 79.833,296.444 79.832,296.617 79.472 C 296.715 79.268,296.746 79.052,296.685 78.991 C 296.625 78.930,296.667 78.881,296.779 78.881 C 296.891 78.881,296.983 78.944,296.983 79.022 M302.093 89.997 C 301.191 90.629,301.181 90.729,301.181 98.653 C 301.181 104.843,301.223 106.114,301.443 106.578 C 301.973 107.696,301.439 107.643,313.336 107.739 L 324.180 107.827 324.268 140.009 C 324.363 175.049,324.284 172.673,325.372 173.336 C 326.002 173.720,342.263 173.876,343.233 173.507 C 344.480 173.033,344.380 175.963,344.381 139.965 L 344.381 107.739 354.645 107.739 C 364.636 107.739,364.929 107.730,365.650 107.381 C 366.839 106.805,366.839 106.806,366.907 98.907 C 366.973 91.298,366.935 90.918,366.053 90.175 L 365.518 89.725 334.000 89.725 C 305.723 89.725,302.443 89.753,302.093 89.997 M226.339 91.177 C 226.011 91.292,225.579 91.608,225.377 91.880 L 225.011 92.374 224.966 120.802 C 224.918 150.738,224.904 150.172,225.733 151.068 L 226.180 151.552 225.795 150.974 C 225.360 150.319,225.383 150.139,225.842 150.619 C 226.010 150.796,226.096 150.940,226.033 150.940 C 225.970 150.940,226.061 151.098,226.235 151.290 C 226.409 151.482,226.481 151.640,226.394 151.639 C 226.095 151.639,226.380 155.197,226.720 155.715 C 227.026 156.180,227.339 156.395,227.090 155.969 C 227.020 155.848,227.133 155.900,227.342 156.083 C 227.766 156.455,227.871 156.703,227.460 156.362 C 227.271 156.205,227.197 156.201,227.197 156.346 C 227.197 156.457,227.315 156.593,227.460 156.649 C 227.638 156.717,227.722 156.997,227.722 157.523 C 227.722 158.408,228.153 159.589,228.416 159.426 C 228.517 159.364,228.550 159.427,228.494 159.573 C 228.368 159.902,228.787 160.704,229.367 161.246 C 229.660 161.520,229.823 161.860,229.827 162.208 C 229.836 163.002,230.573 164.104,231.983 165.432 C 232.355 165.783,233.738 167.115,235.057 168.392 C 236.882 170.159,237.620 170.761,238.142 170.905 C 238.519 171.009,239.083 171.318,239.394 171.591 C 239.706 171.865,240.260 172.169,240.627 172.268 C 240.994 172.367,241.518 172.682,241.792 172.968 C 242.128 173.319,242.582 173.549,243.183 173.675 C 243.674 173.778,244.502 174.097,245.023 174.383 L 245.970 174.903 258.610 174.898 L 271.249 174.893 271.977 174.285 C 272.540 173.815,272.862 173.677,273.400 173.677 C 275.077 173.677,280.698 170.364,280.272 169.627 C 280.197 169.498,280.197 169.447,280.271 169.514 C 280.794 169.984,284.114 167.185,285.394 165.195 C 285.828 164.521,286.520 163.650,286.934 163.259 C 287.472 162.749,287.720 162.352,287.808 161.859 C 287.875 161.481,288.109 160.975,288.327 160.735 C 288.910 160.090,289.317 159.196,289.267 158.666 C 289.207 158.017,289.418 157.470,289.727 157.470 C 290.101 157.470,290.047 157.697,289.593 158.032 C 289.377 158.192,289.318 158.288,289.462 158.247 C 290.064 158.074,290.512 157.055,290.513 155.855 C 290.514 154.985,290.621 154.485,290.945 153.826 C 291.182 153.345,291.378 152.700,291.381 152.393 C 291.384 152.086,291.456 151.792,291.541 151.740 C 291.626 151.687,291.690 151.254,291.682 150.778 C 291.675 150.301,291.614 149.945,291.546 149.987 C 291.281 150.151,291.212 149.465,291.467 149.210 C 291.709 148.968,291.736 148.974,291.736 149.270 C 291.736 149.874,291.892 149.452,292.060 148.398 C 292.151 147.824,292.161 147.276,292.083 147.180 C 291.889 146.942,291.904 146.699,292.129 146.428 C 292.276 146.250,292.346 146.248,292.450 146.416 C 292.765 146.926,292.796 144.096,292.748 118.933 L 292.698 92.436 292.296 91.871 C 291.649 90.966,291.270 90.930,282.938 90.986 C 275.949 91.032,275.329 91.061,274.879 91.356 C 273.837 92.039,273.887 90.661,273.937 117.097 C 273.963 130.420,273.920 141.321,273.842 141.321 C 273.764 141.321,273.749 141.399,273.808 141.495 C 273.868 141.592,273.833 141.670,273.731 141.670 C 273.499 141.670,273.499 141.561,273.727 141.134 C 273.827 140.948,273.869 140.796,273.821 140.796 C 273.561 140.796,273.372 141.520,273.546 141.845 C 273.680 142.096,273.679 142.195,273.542 142.195 C 273.433 142.195,273.409 142.289,273.487 142.414 C 273.772 142.870,273.723 143.277,273.373 143.368 C 273.173 143.420,273.021 143.607,273.021 143.800 C 273.021 143.987,272.943 144.091,272.847 144.031 C 272.734 143.962,272.672 144.691,272.672 146.092 C 272.672 148.247,272.669 148.262,272.225 148.464 C 271.709 148.699,271.272 149.618,271.272 150.469 C 271.272 150.918,271.174 151.103,270.863 151.245 C 270.416 151.449,269.873 152.430,269.873 153.033 C 269.873 153.241,269.785 153.584,269.677 153.794 C 269.515 154.109,269.521 154.137,269.712 153.957 C 270.002 153.683,270.223 153.677,270.223 153.943 C 270.223 154.055,270.174 154.098,270.114 154.037 C 270.054 153.977,269.851 154.102,269.663 154.314 C 269.475 154.527,269.382 154.582,269.456 154.438 C 269.570 154.216,269.547 154.211,269.307 154.406 C 269.151 154.532,269.053 154.793,269.091 154.986 C 269.133 155.206,269.079 155.308,268.947 155.259 C 268.831 155.216,268.758 155.087,268.784 154.972 C 268.811 154.856,268.759 154.807,268.670 154.863 C 268.580 154.918,268.548 155.121,268.598 155.313 C 268.664 155.563,268.604 155.662,268.388 155.662 C 268.192 155.662,268.122 155.571,268.188 155.400 C 268.276 155.170,268.239 155.168,267.900 155.380 C 267.687 155.514,267.202 155.678,266.823 155.744 C 266.367 155.825,265.953 156.062,265.599 156.445 C 265.096 156.988,264.980 157.028,263.714 157.090 C 262.971 157.126,262.271 157.248,262.158 157.361 C 262.000 157.519,262.050 157.548,262.371 157.485 L 262.790 157.402 262.396 157.609 C 262.180 157.722,262.003 157.912,262.003 158.032 C 262.003 158.275,261.569 158.494,261.407 158.332 C 261.349 158.274,261.440 158.063,261.609 157.863 C 261.914 157.500,261.914 157.500,261.526 157.828 C 261.312 158.010,261.175 158.221,261.223 158.297 C 261.270 158.374,261.217 158.494,261.104 158.563 C 260.991 158.633,260.943 158.619,260.997 158.532 C 261.053 158.441,260.330 158.373,259.311 158.373 C 257.896 158.373,257.430 158.309,257.053 158.062 C 256.784 157.886,256.597 157.839,256.623 157.953 C 256.648 158.064,256.573 158.190,256.457 158.232 C 256.322 158.282,256.272 158.176,256.318 157.936 C 256.422 157.400,255.498 157.062,253.931 157.062 C 252.716 157.062,252.650 157.040,252.115 156.456 C 251.709 156.012,251.354 155.817,250.791 155.727 C 249.523 155.524,248.273 154.179,247.060 151.713 C 246.517 150.608,246.006 149.745,245.924 149.795 C 245.843 149.846,245.669 149.750,245.538 149.583 C 245.322 149.307,245.329 149.301,245.606 149.519 C 246.075 149.887,245.969 149.481,245.474 149.016 C 245.077 148.643,245.036 148.468,245.020 147.105 C 245.008 146.086,244.957 145.746,244.862 146.043 C 244.742 146.418,244.720 146.429,244.705 146.122 C 244.695 145.924,244.597 145.673,244.488 145.563 C 244.373 145.448,244.291 144.821,244.296 144.085 C 244.301 143.382,244.267 142.946,244.220 143.115 C 244.174 143.285,244.063 143.379,243.974 143.323 C 243.885 143.268,243.871 143.090,243.944 142.928 C 244.016 142.765,244.036 131.574,243.987 118.059 L 243.899 93.485 243.812 117.849 C 243.758 133.125,243.787 142.274,243.892 142.379 C 243.997 142.484,243.981 142.610,243.849 142.721 C 243.735 142.818,243.679 142.845,243.725 142.781 C 243.772 142.717,243.733 142.572,243.639 142.458 C 243.529 142.326,243.465 133.437,243.461 117.718 C 243.454 93.534,243.449 93.186,243.115 93.273 C 242.568 93.416,242.475 92.756,242.966 92.218 C 243.191 91.970,243.285 91.819,243.175 91.882 C 243.065 91.945,242.927 91.870,242.867 91.715 C 242.785 91.502,242.834 91.463,243.068 91.552 C 243.297 91.639,243.325 91.618,243.178 91.470 C 242.640 90.928,227.789 90.669,226.339 91.177 M366.419 106.502 C 366.419 106.692,365.570 107.390,365.339 107.390 C 365.252 107.390,365.282 107.279,365.406 107.145 C 365.530 107.010,365.664 106.931,365.703 106.968 C 365.833 107.093,366.242 106.654,366.144 106.495 C 366.092 106.410,366.132 106.340,366.234 106.340 C 366.336 106.340,366.419 106.413,366.419 106.502 M324.865 108.195 C 325.215 108.329,325.298 170.611,324.950 171.261 C 324.844 171.459,324.831 171.575,324.921 171.520 C 325.010 171.464,325.084 171.537,325.084 171.681 C 325.084 171.840,324.982 171.904,324.826 171.844 C 324.625 171.767,324.612 171.798,324.766 171.984 C 324.875 172.115,324.912 172.275,324.849 172.338 C 324.786 172.401,324.865 172.453,325.026 172.453 C 325.186 172.453,325.317 172.567,325.317 172.707 C 325.317 172.846,325.455 173.041,325.623 173.139 C 326.034 173.378,325.738 173.378,325.291 173.139 C 324.406 172.665,324.443 174.094,324.443 139.927 C 324.443 122.416,324.475 108.089,324.516 108.089 C 324.556 108.089,324.713 108.137,324.865 108.195 M290.255 157.013 C 290.196 157.248,290.070 157.376,289.963 157.309 C 289.833 157.229,289.842 157.151,289.992 157.058 C 290.139 156.967,290.182 156.636,290.124 156.034 C 290.077 155.545,290.086 155.096,290.144 155.037 C 290.290 154.889,290.381 156.510,290.255 157.013 M285.295 165.145 C 285.098 165.464,284.715 165.920,284.445 166.159 L 283.953 166.593 284.433 166.059 C 284.807 165.645,284.867 165.479,284.704 165.317 C 284.542 165.154,284.587 165.107,284.909 165.107 C 285.137 165.107,285.275 165.059,285.217 165.001 C 285.158 164.943,285.204 164.793,285.319 164.669 C 285.681 164.275,285.668 164.542,285.295 165.145 M232.426 165.493 C 232.615 165.795,232.601 165.809,232.281 165.638 C 232.087 165.534,231.842 165.290,231.738 165.095 C 231.486 164.623,232.108 164.983,232.426 165.493 M240.001 171.622 C 240.174 171.791,240.247 171.928,240.164 171.928 C 239.924 171.928,239.091 171.223,239.091 171.020 C 239.091 170.834,239.409 171.045,240.001 171.622 " stroke="none" fill="#040404" fill-rule="evenodd"></path></g></svg>