<?xml version="1.0" encoding="utf-8"?>
<!-- Generator: Adobe Illustrator 21.0.0, SVG Export Plug-In . SVG Version: 6.00 Build 0)  -->
<svg xmlns="http://www.w3.org/2000/svg" xmlns:xlink="http://www.w3.org/1999/xlink" version="1.1" id="Layer_1" x="0px" y="0px" viewBox="0 0 256 256" style="enable-background:new 0 0 256 256;" xml:space="preserve" width="512" height="512">
<style type="text/css">
	.st0{fill:#6D6C6B;}
	.st1{fill:#E9E9EA;}
	.st2{fill:#FFCD29;}
	.st3{fill:#898989;}
	.st4{fill:#ACDEF9;}
	.st5{fill:#231F20;}
	.st6{fill:#CAECFC;}
	.st7{fill:#EA4647;}
	.st8{fill:#6DCC6D;}
	.st9{fill:#55ACD5;}
</style>
<g id="Layer_22">
	<path class="st0" d="M239,97.1l-9.1,15.8l7.9,4.6l3.3-5.8C243.9,107,243,100.9,239,97.1z"/>
	<path class="st1" d="M146.6,217.1l-2.6,18.2c-0.2,1.1,0.6,2.2,1.7,2.3c0.6,0.1,1.1-0.1,1.5-0.4l14.5-11.3L146.6,217.1z"/>
	<path class="st2" d="M167.1,213.4l-12.3-7.1c-0.5-0.3-0.9-0.7-1.3-1.1l-6.9,12l15.2,8.8l6.9-12   C168.1,213.8,167.6,213.7,167.1,213.4z"/>
	<path class="st0" d="M235.6,94.8l-12.3-7.1c-2-1.2-4.6-0.5-5.7,1.5c0,0,0,0,0,0l-64.3,111.3c-1.2,2-0.5,4.6,1.5,5.7c0,0,0,0,0,0   l12.3,7.1c2,1.2,4.6,0.5,5.7-1.5c0,0,0,0,0,0l64.3-111.3C238.2,98.5,237.6,95.9,235.6,94.8C235.6,94.8,235.6,94.8,235.6,94.8z"/>
	<path class="st3" d="M236.1,79.7c-4.2-2.4-9.6-1-12,3.2c0,0,0,0,0,0l-2.4,4.2c0.6,0.1,1.1,0.2,1.6,0.5l12.3,7.1   c0.5,0.3,0.9,0.7,1.3,1.1l2.4-4.2C241.7,87.5,240.3,82.1,236.1,79.7z"/>
	<path class="st4" d="M189.3,202.5h-11.1l-5.4,9.3c-0.8,1.4-2.4,2.3-4.1,2.1h0l-6.9,12l-14.5,11.3c-0.9,0.7-2.2,0.5-2.9-0.4   c-0.3-0.4-0.5-1-0.4-1.5l2.6-18.2l6.9-12l0,0c-0.5-0.7-0.8-1.7-0.8-2.6H49.8c-2.3,0-4.1,1.8-4.1,4.1v30.6c0,9-7.3,16.2-16.2,16.2   c0,0,0,0,0,0h147.7c9,0,16.2-7.3,16.2-16.2c0,0,0,0,0,0v-30.6C193.4,204.4,191.5,202.5,189.3,202.5z"/>
	<path class="st5" d="M189.3,200h-11.1c-0.9,0-1.7,0.5-2.2,1.2l-5.4,9.3c-0.3,0.6-1,0.9-1.7,0.8h0c-1.1-0.1-2.1,0.5-2.5,1.5   l-6.5,11.3l-13.2,10.3l2.3-16.6l6.5-11.3c0.6-0.9,0.6-2,0-2.9l0,0c-0.2-0.3-0.3-0.7-0.3-1c0-1.4-1.1-2.5-2.4-2.6c0,0,0,0-0.1,0   H49.8c-3.6,0-6.6,3-6.6,6.6v30.6c0,7.6-6.2,13.7-13.7,13.7c-1.4,0-2.5,1.1-2.5,2.5s1.1,2.5,2.5,2.5h147.7   c10.3,0,18.7-8.4,18.7-18.7v-30.6C195.9,203,192.9,200,189.3,200z M190.9,237.3c0,7.6-6.1,13.7-13.7,13.7h-135   c3.8-3.5,6-8.5,6-13.7v-30.6c0-0.9,0.7-1.6,1.6-1.6h100.8l0,0l-6.2,10.8c-0.2,0.3-0.3,0.6-0.3,0.9l-2.6,18.2   c-0.3,2.5,1.4,4.8,3.9,5.1c1.2,0.2,2.5-0.2,3.4-0.9l14.5-11.3c0.3-0.2,0.5-0.4,0.6-0.7l6.2-10.8c2-0.3,3.8-1.5,4.8-3.3l4.6-8.1h9.7   c0.9,0,1.6,0.7,1.6,1.6L190.9,237.3z"/>
	<path class="st6" d="M173.2,19h-156c-2.2,0-4,1.8-4,4v214.4c-0.1,9,7.1,16.3,16.1,16.4s16.3-7.1,16.4-16.1c0-0.1,0-0.2,0-0.3v-30.6   c0-2.3,1.8-4.1,4.1-4.1h102.9c0-0.7,0.2-1.4,0.5-2l23.9-41.4V22.9C177.1,20.7,175.4,19,173.2,19z"/>
	<circle class="st7" cx="59.9" cy="81.3" r="29.8"/>
	<circle class="st8" cx="59.9" cy="155.2" r="29.7"/>
	<path class="st7" d="M201,4.3h-1.8V2.5c0-1.4-1.1-2.5-2.5-2.5s-2.5,1.1-2.5,2.5v1.8h-1.8c-1.4,0-2.5,1.1-2.5,2.5   c0,1.4,1.1,2.5,2.5,2.5h1.8v1.8c0,1.4,1.1,2.5,2.5,2.5s2.5-1.1,2.5-2.5V9.3h1.8c1.4,0,2.5-1.1,2.5-2.5S202.4,4.3,201,4.3z"/>
	<path class="st8" d="M225.6,27.8c-0.1-0.3-0.2-0.6-0.4-0.9c-0.1-0.1-0.2-0.3-0.3-0.4c-1-0.9-2.5-0.9-3.5,0   c-0.1,0.1-0.2,0.2-0.3,0.4c-0.1,0.1-0.2,0.3-0.2,0.4c-0.1,0.2-0.1,0.3-0.1,0.5c-0.1,0.3-0.1,0.7,0,1c0,0.2,0.1,0.3,0.1,0.5   c0.1,0.1,0.1,0.3,0.2,0.4c0.1,0.1,0.2,0.3,0.3,0.4c1,1,2.5,1,3.5,0c0,0,0,0,0,0c0.1-0.1,0.2-0.2,0.3-0.4c0.1-0.1,0.2-0.3,0.2-0.4   c0.1-0.1,0.1-0.3,0.1-0.5C225.6,28.4,225.6,28.1,225.6,27.8z"/>
	<path class="st9" d="M213.2,51.3c-4.1-0.8-7.2-4-8-8c0-0.1-0.1-0.2-0.2-0.2c-0.1,0-0.1,0.1-0.2,0.2c-0.8,4.1-4,7.2-8,8   c-0.1,0-0.2,0.1-0.2,0.2c0,0.1,0.1,0.1,0.2,0.2c4.1,0.8,7.2,4,8,8c0,0.1,0.1,0.2,0.2,0.2c0.1,0,0.1-0.1,0.2-0.2c0.8-4.1,4-7.2,8-8   c0.1,0,0.2-0.1,0.2-0.2C213.3,51.4,213.3,51.3,213.2,51.3z"/>
	<path class="st5" d="M59.9,49C42,49,27.6,63.4,27.6,81.3s14.5,32.3,32.3,32.3s32.3-14.5,32.3-32.3C92.2,63.4,77.7,49,59.9,49z    M59.9,108.6c-15.1,0-27.3-12.2-27.3-27.3S44.8,54,59.9,54s27.3,12.2,27.3,27.3c0,0,0,0,0,0C87.2,96.3,75,108.6,59.9,108.6   L59.9,108.6z"/>
	<path class="st5" d="M73.6,73.7c-0.4-7.1-6-12.7-13.1-13.1c-7.6-0.4-14,5.5-14.4,13.1c0,0.2,0,0.4,0,0.6c0,1.4,1.1,2.5,2.5,2.5   s2.5-1.1,2.5-2.5c0-4.8,3.9-8.7,8.7-8.7c0.1,0,0.3,0,0.4,0c4.8,0.2,8.5,4.3,8.3,9.1c-0.2,3.5-2.4,6.6-5.8,7.8   c-3.3,1.2-5.5,4.3-5.5,7.8c0,1.4,1.1,2.5,2.5,2.5s2.5-1.1,2.5-2.5c0-1.4,0.9-2.6,2.2-3.1C70.2,85.3,73.9,79.8,73.6,73.7z"/>
	<path class="st5" d="M59.9,123c-17.8,0-32.2,14.4-32.2,32.2s14.4,32.2,32.2,32.2s32.2-14.4,32.2-32.2l0,0   C92.1,137.4,77.7,123,59.9,123z M59.9,182.5c-15,0-27.2-12.2-27.2-27.2c0-15,12.2-27.2,27.2-27.2c15,0,27.2,12.2,27.2,27.2l0,0   C87.1,170.3,74.9,182.5,59.9,182.5z"/>
	<path class="st5" d="M163,223.7l-15.2-8.8c-1.2-0.7-2.7-0.3-3.4,0.9c-0.2,0.3-0.3,0.6-0.3,0.9l-2.6,18.2c-0.4,2.5,1.4,4.8,3.9,5.1   c1.2,0.2,2.5-0.2,3.4-0.9l14.5-11.3c1.1-0.9,1.3-2.4,0.4-3.5C163.6,224.1,163.3,223.9,163,223.7L163,223.7z M146.6,234.6l1.9-13.4   l8.8,5.1L146.6,234.6z"/>
	<path class="st5" d="M236.8,92.6l-12.3-7.1c-3.2-1.8-7.3-0.7-9.1,2.4l-64.3,111.3c-1.8,3.2-0.8,7.3,2.4,9.1c0,0,0,0,0,0l12.3,7.1   l0,0c3.2,1.8,7.3,0.7,9.1-2.4l64.3-111.3C241.1,98.5,240,94.5,236.8,92.6z M234.9,99.2l-64.3,111.3c-0.5,0.8-1.5,1.1-2.3,0.6l0,0   l-12.3-7.1c-0.8-0.5-1.1-1.5-0.6-2.3c0,0,0,0,0,0l64.3-111.3c0.5-0.8,1.5-1.1,2.3-0.6c0,0,0,0,0,0l12.3,7.1   C235.1,97.4,235.4,98.4,234.9,99.2L234.9,99.2z"/>
	<path class="st5" d="M237.3,77.5c-5.4-3.1-12.3-1.3-15.4,4.1l-2.4,4.2c-0.7,1.2-0.3,2.7,0.9,3.4c0.3,0.2,0.6,0.3,1,0.3   c0.2,0,0.5,0.1,0.7,0.2l12.3,7.1c0.2,0.1,0.4,0.3,0.5,0.5c0.5,0.6,1.2,1,2,1c0,0,0.1,0,0.1,0c0.8,0,1.6-0.5,2-1.2l2.4-4.2   C244.6,87.5,242.7,80.6,237.3,77.5z M237.1,90.4l-1,1.8l-10.9-6.3l1-1.8c1.7-3,5.6-4,8.6-2.3C237.8,83.6,238.8,87.4,237.1,90.4   L237.1,90.4L237.1,90.4z"/>
	<path class="st5" d="M244.8,102.1c-1-3.7-3.4-6.8-6.7-8.8l-15-8.7c-1.2-0.7-2.7-0.3-3.4,0.9c-0.7,1.2-0.3,2.7,0.9,3.4c0,0,0,0,0,0   l15,8.7c4.5,2.6,6,8.4,3.4,12.9l-21.7,37.6c-1.2-0.6-2.7-0.1-3.3,1.2c-0.6,1.2-0.1,2.6,1,3.2l2,1.2c1.2,0.7,2.7,0.3,3.4-0.9   l23-39.8C245.3,109.7,245.8,105.8,244.8,102.1z"/>
	<path class="st5" d="M240.7,95.3c-1-0.9-2.6-0.9-3.5,0.1c-0.1,0.1-0.2,0.3-0.3,0.5l-9.1,15.8c-0.7,1.2-0.3,2.7,0.9,3.4l7.9,4.6   c1.2,0.7,2.7,0.3,3.4-0.9l3.3-5.8C246.7,107.2,245.6,99.9,240.7,95.3z M239,110.5l-2.1,3.6l-3.6-2.1l6-10.4   C240.7,104.5,240.6,107.8,239,110.5L239,110.5z"/>
	<path class="st5" d="M173.2,16.5h-156c-3.6,0-6.5,2.9-6.5,6.5v214.4c0,10.3,8.4,18.7,18.7,18.7s18.7-8.4,18.7-18.7l0,0v-30.6   c0-0.9,0.7-1.6,1.6-1.6h102.9c1.4,0,2.5-1.1,2.5-2.4c0-0.3,0.1-0.6,0.2-0.8l23.9-41.4c0.2-0.4,0.3-0.8,0.3-1.2V22.9   C179.6,19.3,176.8,16.5,173.2,16.5z M174.6,158.4l-23.6,40.9c-0.1,0.2-0.3,0.5-0.4,0.7H49.8c-3.6,0-6.6,3-6.6,6.6v30.6   c0,7.6-6.1,13.7-13.7,13.7s-13.7-6.1-13.7-13.7V22.9c0-0.8,0.7-1.4,1.5-1.5h156c0.8,0,1.4,0.7,1.5,1.5L174.6,158.4z"/>
	<path class="st5" d="M170.9,212.8c-0.4-0.8-1.1-1.3-2-1.4c-0.2,0-0.5-0.1-0.7-0.2l0,0l-12.3-7.1c-0.2-0.1-0.4-0.3-0.5-0.5   c-0.8-1.1-2.4-1.4-3.5-0.5c-0.3,0.2-0.5,0.5-0.7,0.8l-6.9,12c-0.7,1.2-0.3,2.7,0.9,3.4l15.2,8.8c1.2,0.7,2.7,0.3,3.4-0.9l6.9-12   C171.3,214.4,171.3,213.5,170.9,212.8z M160.9,222.5l-10.9-6.3l4.2-7.3l10.9,6.3L160.9,222.5z"/>
	<path class="st5" d="M160.1,31.5h-12c-1.4,0-2.5,1.1-2.5,2.5s1.1,2.5,2.5,2.5h12c1.4,0,2.5-1.1,2.5-2.5S161.5,31.5,160.1,31.5z"/>
	<path class="st5" d="M62.3,98.8c0-0.2-0.1-0.3-0.2-0.5C62.1,98.2,62,98,62,97.9c-0.1-0.1-0.2-0.3-0.3-0.4c-0.1-0.1-0.2-0.2-0.4-0.3   C61.1,97.1,61,97,60.8,97c-0.2-0.1-0.3-0.1-0.5-0.1c-0.3-0.1-0.7-0.1-1,0c-0.2,0-0.3,0.1-0.5,0.1c-0.2,0.1-0.3,0.1-0.4,0.2   c-0.1,0.1-0.3,0.2-0.4,0.3c-0.1,0.1-0.2,0.2-0.3,0.4c-0.1,0.1-0.2,0.3-0.2,0.4c-0.1,0.2-0.1,0.3-0.2,0.5c-0.1,0.3-0.1,0.7,0,1   c0.1,0.3,0.2,0.6,0.4,0.9c0.1,0.1,0.2,0.3,0.3,0.4c0.1,0.1,0.2,0.2,0.4,0.3c0.1,0.1,0.3,0.2,0.4,0.2c0.2,0.1,0.3,0.1,0.5,0.1   c0.3,0.1,0.7,0.1,1,0c0.2,0,0.3-0.1,0.5-0.1c0.2-0.1,0.3-0.1,0.4-0.2c0.1-0.1,0.3-0.2,0.4-0.3c0.1-0.1,0.2-0.2,0.3-0.4   c0.1-0.1,0.2-0.3,0.2-0.4c0.1-0.2,0.1-0.3,0.2-0.5C62.4,99.4,62.4,99.1,62.3,98.8z"/>
	<path class="st5" d="M74.9,145.5c-1-1-2.6-1-3.5,0l-16.1,16.1l-6.1-6.7c-0.9-1-2.5-1.1-3.5-0.2c-1,0.9-1.1,2.5-0.2,3.5c0,0,0,0,0,0   l7.9,8.6c0.5,0.5,1.1,0.8,1.8,0.8h0.1c0.7,0,1.3-0.3,1.8-0.7L74.9,149C75.9,148.1,75.9,146.5,74.9,145.5   C74.9,145.5,74.9,145.5,74.9,145.5z"/>
	<path class="st5" d="M155.1,63.9H105c-1.4,0-2.5,1.1-2.5,2.5c0,1.4,1.1,2.5,2.5,2.5c0,0,0,0,0,0h50.1c1.4,0,2.5-1.1,2.5-2.5   S156.5,63.9,155.1,63.9L155.1,63.9z"/>
	<path class="st5" d="M155.1,78.8H105c-1.4,0-2.5,1.1-2.5,2.5s1.1,2.5,2.5,2.5h50.1c1.4,0,2.5-1.1,2.5-2.5S156.5,78.8,155.1,78.8   L155.1,78.8z"/>
	<path class="st5" d="M155.1,93.7H105c-1.4,0-2.5,1.1-2.5,2.5s1.1,2.5,2.5,2.5h50.1c1.4,0,2.5-1.1,2.5-2.5S156.5,93.7,155.1,93.7   L155.1,93.7z"/>
	<path class="st5" d="M155.1,138.8H105c-1.4,0-2.5,1.1-2.5,2.5s1.1,2.5,2.5,2.5h50.1c1.4,0,2.5-1.1,2.5-2.5S156.5,138.8,155.1,138.8   L155.1,138.8z"/>
	<path class="st5" d="M155.1,153.7H105c-1.4,0-2.5,1.1-2.5,2.5s1.1,2.5,2.5,2.5h50.1c1.4,0,2.5-1.1,2.5-2.5S156.5,153.7,155.1,153.7   L155.1,153.7z"/>
	<path class="st5" d="M155.1,168.6H105c-1.4,0-2.5,1.1-2.5,2.5s1.1,2.5,2.5,2.5h50.1c1.4,0,2.5-1.1,2.5-2.5S156.5,168.6,155.1,168.6   L155.1,168.6z"/>
</g>
</svg>
