<?xml version="1.0" standalone="no"?>
<!DOCTYPE svg PUBLIC "-//W3C//DTD SVG 20010904//EN"
 "http://www.w3.org/TR/2001/REC-SVG-20010904/DTD/svg10.dtd">
<svg version="1.0" xmlns="http://www.w3.org/2000/svg"
 width="700.000000pt" height="700.000000pt" viewBox="0 0 700.000000 700.000000"
 preserveAspectRatio="xMidYMid meet">
<metadata>
Created by potrace 1.11, written by Peter Selinger 2001-2013
</metadata>
<g transform="translate(0.000000,700.000000) scale(0.100000,-0.100000)"
fill="#000000" stroke="none">
<path d="M3269 6996 c-2 -2 -42 -7 -89 -10 -47 -2 -134 -12 -195 -21 -60 -9
-126 -19 -145 -21 -19 -3 -48 -9 -65 -14 -16 -5 -42 -11 -56 -14 -127 -21
-470 -131 -614 -196 -200 -91 -339 -164 -490 -259 -92 -58 -300 -208 -335
-242 -8 -8 -38 -32 -65 -54 -95 -75 -342 -330 -448 -464 -122 -154 -227 -308
-316 -465 -68 -120 -171 -330 -171 -350 0 -7 -4 -16 -9 -21 -15 -16 -97 -246
-135 -379 -39 -135 -92 -380 -101 -469 -4 -32 -8 -66 -10 -76 -12 -64 -20
-228 -20 -421 0 -264 12 -406 49 -605 9 -44 18 -94 21 -112 22 -130 116 -433
187 -603 112 -265 287 -575 424 -750 164 -208 357 -417 499 -541 123 -106 412
-320 455 -337 8 -3 39 -21 68 -39 29 -19 103 -60 165 -92 97 -51 158 -79 292
-136 142 -60 425 -149 545 -171 14 -3 31 -7 39 -10 8 -2 30 -7 50 -10 20 -3
59 -9 86 -14 193 -36 314 -45 590 -45 214 0 337 6 430 20 17 3 44 7 60 9 230
33 399 74 635 153 91 30 174 62 185 69 11 8 25 14 33 14 40 0 368 173 545 287
770 496 1323 1298 1511 2189 30 144 31 148 52 304 26 200 26 746 -1 850 -2 8
-7 42 -10 75 -7 63 -39 232 -57 300 -5 22 -11 47 -13 55 -18 93 -114 375 -178
521 -56 129 -166 345 -198 391 -11 14 -19 31 -19 36 0 6 -4 12 -8 14 -4 2 -20
23 -34 48 -50 86 -182 265 -308 415 -14 17 -88 93 -165 171 -194 195 -362 332
-575 468 -41 27 -86 56 -100 65 -32 20 -41 25 -190 103 -201 106 -389 181
-618 249 -137 40 -328 83 -417 94 -27 4 -57 8 -65 10 -8 2 -46 7 -85 11 -38 3
-79 8 -90 11 -25 6 -521 14 -526 9z m581 -620 c744 -102 1373 -455 1866 -1047
195 -234 389 -592 487 -894 108 -334 142 -554 142 -910 0 -236 -6 -318 -36
-484 -25 -144 -27 -155 -51 -241 -11 -41 -24 -88 -28 -105 -20 -79 -109 -304
-170 -430 -99 -204 -257 -446 -393 -604 -60 -68 -282 -288 -348 -343 -300
-250 -668 -447 -1034 -553 -49 -15 -97 -28 -106 -30 -9 -2 -60 -13 -113 -24
-95 -21 -184 -35 -301 -49 -128 -14 -656 -5 -685 13 -3 2 -30 6 -60 10 -175
22 -500 117 -690 202 -135 60 -320 159 -425 228 -236 154 -512 404 -665 601
-8 11 -31 40 -51 64 -91 114 -223 330 -306 500 -85 176 -187 472 -217 630 -3
14 -11 61 -20 105 -32 170 -40 273 -41 505 0 227 6 308 35 485 80 474 287 936
597 1325 80 101 319 342 418 421 350 282 744 475 1169 575 55 12 118 25 140
28 23 4 68 11 101 16 33 6 98 13 145 16 47 4 87 8 89 10 11 10 450 -6 551 -20z"/>
<path d="M5000 5071 c-36 -21 -141 -82 -235 -136 -93 -54 -213 -123 -265 -153
-52 -30 -108 -62 -125 -72 -40 -23 -577 -332 -785 -452 -91 -53 -182 -105
-202 -116 -20 -12 -55 -32 -77 -46 -22 -15 -42 -26 -44 -26 -3 0 -116 -65
-183 -105 -23 -14 -94 -127 -299 -474 -148 -251 -301 -510 -341 -576 -264
-446 -574 -974 -574 -980 0 -3 12 2 28 13 22 15 153 91 362 210 19 11 139 79
265 152 127 73 250 144 275 158 25 14 61 35 80 47 19 12 56 33 82 48 25 14
106 60 180 103 124 71 625 360 712 410 39 22 54 45 201 294 34 58 144 245 245
415 319 541 409 693 575 975 89 151 172 292 185 313 12 20 18 37 13 36 -4 0
-37 -17 -73 -38z"/>
</g>
</svg>
